<mxfile host="app.diagrams.net" agent="Mozilla/5.0 (Windows NT 10.0; Win64; x64) AppleWebKit/537.36 (KHTML, like Gecko) Chrome/133.0.0.0 Safari/537.36" version="26.0.16">
  <diagram name="Page-1" id="piNgC-bd7addYPHEhgLB">
    <mxGraphModel dx="842" dy="1874" grid="1" gridSize="10" guides="1" tooltips="1" connect="1" arrows="1" fold="1" page="1" pageScale="1" pageWidth="827" pageHeight="1169" math="0" shadow="0">
      <root>
        <mxCell id="0" />
        <mxCell id="1" parent="0" />
        <mxCell id="0fKexGmLBxf0XYD2S65C-3" value="" style="edgeStyle=orthogonalEdgeStyle;rounded=0;orthogonalLoop=1;jettySize=auto;html=1;endArrow=none;startFill=0;fontFamily=Lucida Console;fontSize=16;" parent="1" source="0fKexGmLBxf0XYD2S65C-1" target="0fKexGmLBxf0XYD2S65C-2" edge="1">
          <mxGeometry relative="1" as="geometry" />
        </mxCell>
        <mxCell id="0fKexGmLBxf0XYD2S65C-1" value="Начало" style="rounded=1;whiteSpace=wrap;html=1;arcSize=50;fontFamily=Lucida Console;fontSize=16;" parent="1" vertex="1">
          <mxGeometry x="190" width="180" height="60" as="geometry" />
        </mxCell>
        <mxCell id="0fKexGmLBxf0XYD2S65C-5" value="" style="edgeStyle=orthogonalEdgeStyle;rounded=0;orthogonalLoop=1;jettySize=auto;html=1;endArrow=none;startFill=0;fontFamily=Lucida Console;fontSize=16;" parent="1" source="0fKexGmLBxf0XYD2S65C-2" target="0fKexGmLBxf0XYD2S65C-4" edge="1">
          <mxGeometry relative="1" as="geometry" />
        </mxCell>
        <mxCell id="0fKexGmLBxf0XYD2S65C-2" value="FILE_NAME = &quot;test.txt&quot;&lt;div&gt;MAX_LINE_LEN = 50&lt;/div&gt;&lt;div&gt;line[50]&lt;/div&gt;&lt;div&gt;i = 0&lt;/div&gt;" style="rounded=0;whiteSpace=wrap;html=1;fontFamily=Lucida Console;fontSize=16;" parent="1" vertex="1">
          <mxGeometry x="190" y="80" width="180" height="90" as="geometry" />
        </mxCell>
        <mxCell id="0fKexGmLBxf0XYD2S65C-9" value="" style="edgeStyle=orthogonalEdgeStyle;rounded=0;orthogonalLoop=1;jettySize=auto;html=1;endArrow=none;startFill=0;fontFamily=Lucida Console;fontSize=16;" parent="1" source="0fKexGmLBxf0XYD2S65C-4" target="0fKexGmLBxf0XYD2S65C-8" edge="1">
          <mxGeometry relative="1" as="geometry" />
        </mxCell>
        <mxCell id="0fKexGmLBxf0XYD2S65C-4" value="Вывод:&lt;div&gt;&quot;Reading values from file&quot;&lt;/div&gt;" style="shape=parallelogram;perimeter=parallelogramPerimeter;whiteSpace=wrap;html=1;fixedSize=1;fontSize=16;fontFamily=Lucida Console;rounded=0;" parent="1" vertex="1">
          <mxGeometry x="190" y="190" width="180" height="70" as="geometry" />
        </mxCell>
        <mxCell id="0fKexGmLBxf0XYD2S65C-11" value="" style="edgeStyle=orthogonalEdgeStyle;rounded=0;orthogonalLoop=1;jettySize=auto;html=1;endArrow=none;startFill=0;fontFamily=Lucida Console;fontSize=16;" parent="1" source="0fKexGmLBxf0XYD2S65C-8" target="0fKexGmLBxf0XYD2S65C-10" edge="1">
          <mxGeometry relative="1" as="geometry" />
        </mxCell>
        <mxCell id="0fKexGmLBxf0XYD2S65C-16" style="edgeStyle=orthogonalEdgeStyle;rounded=0;orthogonalLoop=1;jettySize=auto;html=1;entryX=0.5;entryY=0;entryDx=0;entryDy=0;endArrow=none;startFill=0;fontFamily=Lucida Console;fontSize=16;" parent="1" source="0fKexGmLBxf0XYD2S65C-8" target="0fKexGmLBxf0XYD2S65C-14" edge="1">
          <mxGeometry relative="1" as="geometry" />
        </mxCell>
        <mxCell id="0fKexGmLBxf0XYD2S65C-8" value="Файл существует?" style="rhombus;whiteSpace=wrap;html=1;fontSize=16;fontFamily=Lucida Console;rounded=0;" parent="1" vertex="1">
          <mxGeometry x="190" y="280" width="180" height="80" as="geometry" />
        </mxCell>
        <mxCell id="0fKexGmLBxf0XYD2S65C-18" style="edgeStyle=orthogonalEdgeStyle;rounded=0;orthogonalLoop=1;jettySize=auto;html=1;entryX=0.5;entryY=0;entryDx=0;entryDy=0;endArrow=none;startFill=0;fontFamily=Lucida Console;fontSize=16;" parent="1" source="0fKexGmLBxf0XYD2S65C-10" target="0fKexGmLBxf0XYD2S65C-15" edge="1">
          <mxGeometry relative="1" as="geometry" />
        </mxCell>
        <mxCell id="0fKexGmLBxf0XYD2S65C-33" style="edgeStyle=orthogonalEdgeStyle;rounded=0;orthogonalLoop=1;jettySize=auto;html=1;endArrow=none;startFill=0;fontFamily=Lucida Console;fontSize=16;" parent="1" source="0fKexGmLBxf0XYD2S65C-10" target="0fKexGmLBxf0XYD2S65C-29" edge="1">
          <mxGeometry relative="1" as="geometry" />
        </mxCell>
        <mxCell id="0fKexGmLBxf0XYD2S65C-10" value="В файле есть&lt;div&gt;данные?&lt;/div&gt;" style="rhombus;whiteSpace=wrap;html=1;fontSize=16;fontFamily=Lucida Console;rounded=0;" parent="1" vertex="1">
          <mxGeometry x="190" y="380" width="180" height="80" as="geometry" />
        </mxCell>
        <mxCell id="0fKexGmLBxf0XYD2S65C-21" value="" style="edgeStyle=orthogonalEdgeStyle;rounded=0;orthogonalLoop=1;jettySize=auto;html=1;endArrow=none;startFill=0;fontFamily=Lucida Console;fontSize=16;" parent="1" source="0fKexGmLBxf0XYD2S65C-14" target="0fKexGmLBxf0XYD2S65C-19" edge="1">
          <mxGeometry relative="1" as="geometry" />
        </mxCell>
        <mxCell id="0fKexGmLBxf0XYD2S65C-14" value="Сообщение об ошибке:&lt;div&gt;&quot;File file.txt doesn`t&lt;/div&gt;&lt;div&gt;exist&quot;&lt;/div&gt;" style="shape=parallelogram;perimeter=parallelogramPerimeter;whiteSpace=wrap;html=1;fixedSize=1;fontSize=16;fontFamily=Lucida Console;rounded=0;" parent="1" vertex="1">
          <mxGeometry x="400" y="340" width="180" height="70" as="geometry" />
        </mxCell>
        <mxCell id="0fKexGmLBxf0XYD2S65C-22" value="" style="edgeStyle=orthogonalEdgeStyle;rounded=0;orthogonalLoop=1;jettySize=auto;html=1;endArrow=none;startFill=0;fontFamily=Lucida Console;fontSize=16;" parent="1" source="0fKexGmLBxf0XYD2S65C-15" target="0fKexGmLBxf0XYD2S65C-20" edge="1">
          <mxGeometry relative="1" as="geometry" />
        </mxCell>
        <mxCell id="0fKexGmLBxf0XYD2S65C-15" value="Сообщение об ошибке:&lt;div&gt;&quot;File file.txt is empty&lt;span style=&quot;background-color: transparent; color: light-dark(rgb(0, 0, 0), rgb(255, 255, 255));&quot;&gt;&quot;&lt;/span&gt;&lt;/div&gt;" style="shape=parallelogram;perimeter=parallelogramPerimeter;whiteSpace=wrap;html=1;fixedSize=1;fontSize=16;fontFamily=Lucida Console;rounded=0;" parent="1" vertex="1">
          <mxGeometry y="460" width="180" height="70" as="geometry" />
        </mxCell>
        <mxCell id="0fKexGmLBxf0XYD2S65C-19" value="Конец&lt;div&gt;(ruturn 1)&lt;/div&gt;" style="rounded=1;whiteSpace=wrap;html=1;arcSize=50;fontFamily=Lucida Console;fontSize=16;" parent="1" vertex="1">
          <mxGeometry x="400" y="430" width="180" height="60" as="geometry" />
        </mxCell>
        <mxCell id="0fKexGmLBxf0XYD2S65C-20" value="Конец&lt;div&gt;(ruturn 2)&lt;/div&gt;" style="rounded=1;whiteSpace=wrap;html=1;arcSize=50;fontFamily=Lucida Console;fontSize=16;" parent="1" vertex="1">
          <mxGeometry y="550" width="180" height="60" as="geometry" />
        </mxCell>
        <mxCell id="0fKexGmLBxf0XYD2S65C-23" value="Да" style="text;html=1;align=center;verticalAlign=middle;resizable=0;points=[];autosize=1;strokeColor=none;fillColor=none;fontFamily=Lucida Console;fontSize=16;" parent="1" vertex="1">
          <mxGeometry x="280" y="350" width="40" height="30" as="geometry" />
        </mxCell>
        <mxCell id="0fKexGmLBxf0XYD2S65C-24" value="Нет" style="text;html=1;align=center;verticalAlign=middle;resizable=0;points=[];autosize=1;strokeColor=none;fillColor=none;fontFamily=Lucida Console;fontSize=16;" parent="1" vertex="1">
          <mxGeometry x="355" y="290" width="50" height="30" as="geometry" />
        </mxCell>
        <mxCell id="0fKexGmLBxf0XYD2S65C-25" value="Нет" style="text;html=1;align=center;verticalAlign=middle;resizable=0;points=[];autosize=1;strokeColor=none;fillColor=none;fontFamily=Lucida Console;fontSize=16;" parent="1" vertex="1">
          <mxGeometry x="150" y="390" width="50" height="30" as="geometry" />
        </mxCell>
        <mxCell id="0fKexGmLBxf0XYD2S65C-26" value="Да" style="text;html=1;align=center;verticalAlign=middle;resizable=0;points=[];autosize=1;strokeColor=none;fillColor=none;fontFamily=Lucida Console;fontSize=16;" parent="1" vertex="1">
          <mxGeometry x="290" y="450" width="40" height="30" as="geometry" />
        </mxCell>
        <mxCell id="0fKexGmLBxf0XYD2S65C-35" value="" style="edgeStyle=orthogonalEdgeStyle;rounded=0;orthogonalLoop=1;jettySize=auto;html=1;endArrow=none;startFill=0;fontFamily=Lucida Console;fontSize=16;" parent="1" source="0fKexGmLBxf0XYD2S65C-29" target="0fKexGmLBxf0XYD2S65C-34" edge="1">
          <mxGeometry relative="1" as="geometry" />
        </mxCell>
        <mxCell id="0fKexGmLBxf0XYD2S65C-29" value="Ввод данных из файла:&lt;div&gt;line[50]&lt;/div&gt;" style="shape=parallelogram;perimeter=parallelogramPerimeter;whiteSpace=wrap;html=1;fixedSize=1;fontSize=16;fontFamily=Lucida Console;rounded=0;" parent="1" vertex="1">
          <mxGeometry x="190" y="480" width="180" height="70" as="geometry" />
        </mxCell>
        <mxCell id="0fKexGmLBxf0XYD2S65C-37" value="" style="edgeStyle=orthogonalEdgeStyle;rounded=0;orthogonalLoop=1;jettySize=auto;html=1;endArrow=none;startFill=0;fontFamily=Lucida Console;fontSize=16;" parent="1" source="0fKexGmLBxf0XYD2S65C-34" target="0fKexGmLBxf0XYD2S65C-36" edge="1">
          <mxGeometry relative="1" as="geometry" />
        </mxCell>
        <mxCell id="0fKexGmLBxf0XYD2S65C-34" value="Вывод:&lt;div&gt;&quot;Original line:&quot;, line[50]&lt;/div&gt;" style="shape=parallelogram;perimeter=parallelogramPerimeter;whiteSpace=wrap;html=1;fixedSize=1;fontSize=16;fontFamily=Lucida Console;rounded=0;" parent="1" vertex="1">
          <mxGeometry x="190" y="570" width="180" height="70" as="geometry" />
        </mxCell>
        <mxCell id="0fKexGmLBxf0XYD2S65C-41" style="edgeStyle=orthogonalEdgeStyle;rounded=0;orthogonalLoop=1;jettySize=auto;html=1;entryX=0.5;entryY=0;entryDx=0;entryDy=0;endArrow=none;startFill=0;fontFamily=Lucida Console;fontSize=16;" parent="1" source="0fKexGmLBxf0XYD2S65C-36" target="0fKexGmLBxf0XYD2S65C-38" edge="1">
          <mxGeometry relative="1" as="geometry" />
        </mxCell>
        <mxCell id="0fKexGmLBxf0XYD2S65C-36" value="space_deleter(&amp;amp;line[0])" style="whiteSpace=wrap;html=1;fontSize=16;fontFamily=Lucida Console;rounded=0;" parent="1" vertex="1">
          <mxGeometry x="190" y="660" width="180" height="40" as="geometry" />
        </mxCell>
        <mxCell id="0fKexGmLBxf0XYD2S65C-42" style="edgeStyle=orthogonalEdgeStyle;rounded=0;orthogonalLoop=1;jettySize=auto;html=1;endArrow=none;startFill=0;fontFamily=Lucida Console;fontSize=16;" parent="1" source="0fKexGmLBxf0XYD2S65C-38" target="0fKexGmLBxf0XYD2S65C-39" edge="1">
          <mxGeometry relative="1" as="geometry" />
        </mxCell>
        <mxCell id="0fKexGmLBxf0XYD2S65C-38" value="Вывод:&lt;div&gt;&quot;Line after deleting spaces:&quot;, line[50]&lt;/div&gt;" style="shape=parallelogram;perimeter=parallelogramPerimeter;whiteSpace=wrap;html=1;fixedSize=1;fontSize=16;fontFamily=Lucida Console;rounded=0;" parent="1" vertex="1">
          <mxGeometry x="190" y="720" width="180" height="70" as="geometry" />
        </mxCell>
        <mxCell id="0fKexGmLBxf0XYD2S65C-44" style="edgeStyle=orthogonalEdgeStyle;rounded=0;orthogonalLoop=1;jettySize=auto;html=1;endArrow=none;startFill=0;fontFamily=Lucida Console;fontSize=16;" parent="1" source="0fKexGmLBxf0XYD2S65C-39" target="0fKexGmLBxf0XYD2S65C-43" edge="1">
          <mxGeometry relative="1" as="geometry" />
        </mxCell>
        <mxCell id="0fKexGmLBxf0XYD2S65C-39" value="swap_longest_words(&amp;amp;line[0])" style="whiteSpace=wrap;html=1;fontSize=16;fontFamily=Lucida Console;rounded=0;" parent="1" vertex="1">
          <mxGeometry x="170" y="810" width="220" height="40" as="geometry" />
        </mxCell>
        <mxCell id="0fKexGmLBxf0XYD2S65C-47" value="" style="edgeStyle=orthogonalEdgeStyle;rounded=0;orthogonalLoop=1;jettySize=auto;html=1;endArrow=none;startFill=0;fontFamily=Lucida Console;fontSize=16;" parent="1" source="0fKexGmLBxf0XYD2S65C-43" target="0fKexGmLBxf0XYD2S65C-46" edge="1">
          <mxGeometry relative="1" as="geometry" />
        </mxCell>
        <mxCell id="0fKexGmLBxf0XYD2S65C-43" value="Вывод:&lt;div&gt;&quot;Line after swaping letters in longest words&quot;, line[50]&lt;/div&gt;" style="shape=parallelogram;perimeter=parallelogramPerimeter;whiteSpace=wrap;html=1;fixedSize=1;fontSize=16;fontFamily=Lucida Console;rounded=0;" parent="1" vertex="1">
          <mxGeometry x="170" y="870" width="220" height="80" as="geometry" />
        </mxCell>
        <mxCell id="0fKexGmLBxf0XYD2S65C-46" value="Конец&lt;div&gt;(ruturn 0)&lt;/div&gt;" style="rounded=1;whiteSpace=wrap;html=1;arcSize=50;fontFamily=Lucida Console;fontSize=16;" parent="1" vertex="1">
          <mxGeometry x="190" y="970" width="180" height="60" as="geometry" />
        </mxCell>
        <mxCell id="dJmScOY1n6fodPEQiCKu-3" value="" style="edgeStyle=orthogonalEdgeStyle;rounded=0;orthogonalLoop=1;jettySize=auto;html=1;endArrow=none;startFill=0;fontFamily=Lucida Console;fontSize=16;" parent="1" source="dJmScOY1n6fodPEQiCKu-1" target="dJmScOY1n6fodPEQiCKu-2" edge="1">
          <mxGeometry relative="1" as="geometry" />
        </mxCell>
        <mxCell id="dJmScOY1n6fodPEQiCKu-1" value="Начало&lt;div&gt;void space_deleter(char * cell )&lt;/div&gt;" style="rounded=1;whiteSpace=wrap;html=1;arcSize=50;fontFamily=Lucida Console;fontSize=16;" parent="1" vertex="1">
          <mxGeometry x="800" width="180" height="60" as="geometry" />
        </mxCell>
        <mxCell id="f1EQFG4bd591kKnXFSUB-3" value="" style="edgeStyle=orthogonalEdgeStyle;rounded=0;orthogonalLoop=1;jettySize=auto;html=1;endArrow=none;startFill=0;fontFamily=Lucida Console;fontSize=16;" parent="1" source="dJmScOY1n6fodPEQiCKu-2" target="f1EQFG4bd591kKnXFSUB-1" edge="1">
          <mxGeometry relative="1" as="geometry" />
        </mxCell>
        <mxCell id="dJmScOY1n6fodPEQiCKu-2" value="char* _cell = cell;&lt;div&gt;char* i;&lt;br&gt;&lt;/div&gt;" style="rounded=0;whiteSpace=wrap;html=1;fontFamily=Lucida Console;fontSize=16;" parent="1" vertex="1">
          <mxGeometry x="800" y="80" width="180" height="50" as="geometry" />
        </mxCell>
        <mxCell id="f1EQFG4bd591kKnXFSUB-4" value="" style="edgeStyle=orthogonalEdgeStyle;rounded=0;orthogonalLoop=1;jettySize=auto;html=1;endArrow=none;startFill=0;fontFamily=Lucida Console;fontSize=16;" parent="1" source="f1EQFG4bd591kKnXFSUB-1" target="f1EQFG4bd591kKnXFSUB-2" edge="1">
          <mxGeometry relative="1" as="geometry" />
        </mxCell>
        <mxCell id="JvH_zXGZEXURWCZafHmw-7" style="edgeStyle=orthogonalEdgeStyle;rounded=0;orthogonalLoop=1;jettySize=auto;html=1;entryX=0.5;entryY=0;entryDx=0;entryDy=0;endArrow=none;startFill=0;fontFamily=Lucida Console;" parent="1" source="f1EQFG4bd591kKnXFSUB-1" target="JvH_zXGZEXURWCZafHmw-1" edge="1">
          <mxGeometry relative="1" as="geometry">
            <mxPoint x="1150" y="570" as="targetPoint" />
            <Array as="points">
              <mxPoint x="1130" y="190" />
              <mxPoint x="1130" y="890" />
              <mxPoint x="890" y="890" />
            </Array>
          </mxGeometry>
        </mxCell>
        <mxCell id="f1EQFG4bd591kKnXFSUB-1" value="*_cell != &#39;\0&#39;" style="rhombus;whiteSpace=wrap;html=1;fontSize=16;fontFamily=Lucida Console;rounded=0;" parent="1" vertex="1">
          <mxGeometry x="800" y="150" width="180" height="80" as="geometry" />
        </mxCell>
        <mxCell id="f1EQFG4bd591kKnXFSUB-12" style="edgeStyle=orthogonalEdgeStyle;rounded=0;orthogonalLoop=1;jettySize=auto;html=1;endArrow=none;startFill=0;fontFamily=Lucida Console;fontSize=16;" parent="1" source="f1EQFG4bd591kKnXFSUB-2" target="f1EQFG4bd591kKnXFSUB-5" edge="1">
          <mxGeometry relative="1" as="geometry" />
        </mxCell>
        <mxCell id="f1EQFG4bd591kKnXFSUB-31" style="edgeStyle=orthogonalEdgeStyle;rounded=0;orthogonalLoop=1;jettySize=auto;html=1;entryX=0.5;entryY=0;entryDx=0;entryDy=0;endArrow=none;startFill=0;fontFamily=Lucida Console;fontSize=16;" parent="1" source="f1EQFG4bd591kKnXFSUB-2" target="f1EQFG4bd591kKnXFSUB-21" edge="1">
          <mxGeometry relative="1" as="geometry">
            <mxPoint x="940" y="640" as="targetPoint" />
            <Array as="points">
              <mxPoint x="1110" y="290" />
              <mxPoint x="1110" y="640" />
              <mxPoint x="890" y="640" />
            </Array>
          </mxGeometry>
        </mxCell>
        <mxCell id="f1EQFG4bd591kKnXFSUB-2" value="*_cell == &#39; &#39; and&lt;div&gt;(&lt;span style=&quot;background-color: transparent; color: light-dark(rgb(0, 0, 0), rgb(255, 255, 255));&quot;&gt;*_cell + 1&lt;/span&gt;&lt;span style=&quot;background-color: transparent; color: light-dark(rgb(0, 0, 0), rgb(255, 255, 255));&quot;&gt;) == &#39; &#39;&lt;/span&gt;&lt;/div&gt;" style="rhombus;whiteSpace=wrap;html=1;fontSize=16;fontFamily=Lucida Console;rounded=0;" parent="1" vertex="1">
          <mxGeometry x="800" y="250" width="180" height="80" as="geometry" />
        </mxCell>
        <mxCell id="f1EQFG4bd591kKnXFSUB-10" value="" style="edgeStyle=orthogonalEdgeStyle;rounded=0;orthogonalLoop=1;jettySize=auto;html=1;endArrow=none;startFill=0;fontFamily=Lucida Console;fontSize=16;" parent="1" source="f1EQFG4bd591kKnXFSUB-5" target="f1EQFG4bd591kKnXFSUB-6" edge="1">
          <mxGeometry relative="1" as="geometry" />
        </mxCell>
        <mxCell id="f1EQFG4bd591kKnXFSUB-5" value="&lt;div&gt;i = _cell;&lt;/div&gt;" style="rounded=0;whiteSpace=wrap;html=1;fontFamily=Lucida Console;fontSize=16;" parent="1" vertex="1">
          <mxGeometry x="800" y="350" width="180" height="50" as="geometry" />
        </mxCell>
        <mxCell id="f1EQFG4bd591kKnXFSUB-9" value="" style="edgeStyle=orthogonalEdgeStyle;rounded=0;orthogonalLoop=1;jettySize=auto;html=1;endArrow=none;startFill=0;fontFamily=Lucida Console;fontSize=16;" parent="1" source="f1EQFG4bd591kKnXFSUB-6" target="f1EQFG4bd591kKnXFSUB-8" edge="1">
          <mxGeometry relative="1" as="geometry" />
        </mxCell>
        <mxCell id="f1EQFG4bd591kKnXFSUB-28" style="edgeStyle=orthogonalEdgeStyle;rounded=0;orthogonalLoop=1;jettySize=auto;html=1;fontFamily=Lucida Console;fontSize=16;" parent="1" source="f1EQFG4bd591kKnXFSUB-6" edge="1">
          <mxGeometry relative="1" as="geometry">
            <mxPoint x="890" y="240" as="targetPoint" />
            <Array as="points">
              <mxPoint x="1010" y="460" />
              <mxPoint x="1010" y="620" />
              <mxPoint x="760" y="620" />
              <mxPoint x="760" y="240" />
            </Array>
          </mxGeometry>
        </mxCell>
        <mxCell id="f1EQFG4bd591kKnXFSUB-6" value="*i != &#39;\0&#39;" style="rhombus;whiteSpace=wrap;html=1;fontSize=16;fontFamily=Lucida Console;rounded=0;" parent="1" vertex="1">
          <mxGeometry x="800" y="420" width="180" height="80" as="geometry" />
        </mxCell>
        <mxCell id="f1EQFG4bd591kKnXFSUB-14" style="edgeStyle=orthogonalEdgeStyle;rounded=0;orthogonalLoop=1;jettySize=auto;html=1;fontFamily=Lucida Console;fontSize=16;" parent="1" source="f1EQFG4bd591kKnXFSUB-8" edge="1">
          <mxGeometry relative="1" as="geometry">
            <mxPoint x="890" y="410" as="targetPoint" />
            <Array as="points">
              <mxPoint x="890" y="590" />
              <mxPoint x="780" y="590" />
              <mxPoint x="780" y="410" />
            </Array>
          </mxGeometry>
        </mxCell>
        <mxCell id="f1EQFG4bd591kKnXFSUB-8" value="*i = *(i+1);&lt;div&gt;i ++;&lt;/div&gt;" style="rounded=0;whiteSpace=wrap;html=1;fontFamily=Lucida Console;fontSize=16;" parent="1" vertex="1">
          <mxGeometry x="800" y="520" width="180" height="50" as="geometry" />
        </mxCell>
        <mxCell id="f1EQFG4bd591kKnXFSUB-15" value="Да" style="text;html=1;align=center;verticalAlign=middle;resizable=0;points=[];autosize=1;strokeColor=none;fillColor=none;fontFamily=Lucida Console;fontSize=16;" parent="1" vertex="1">
          <mxGeometry x="890" y="220" width="40" height="30" as="geometry" />
        </mxCell>
        <mxCell id="f1EQFG4bd591kKnXFSUB-16" value="Нет" style="text;html=1;align=center;verticalAlign=middle;resizable=0;points=[];autosize=1;strokeColor=none;fillColor=none;fontFamily=Lucida Console;fontSize=16;" parent="1" vertex="1">
          <mxGeometry x="965" y="160" width="50" height="30" as="geometry" />
        </mxCell>
        <mxCell id="f1EQFG4bd591kKnXFSUB-17" value="Да" style="text;html=1;align=center;verticalAlign=middle;resizable=0;points=[];autosize=1;strokeColor=none;fillColor=none;fontFamily=Lucida Console;fontSize=16;" parent="1" vertex="1">
          <mxGeometry x="890" y="320" width="40" height="30" as="geometry" />
        </mxCell>
        <mxCell id="f1EQFG4bd591kKnXFSUB-18" value="Нет" style="text;html=1;align=center;verticalAlign=middle;resizable=0;points=[];autosize=1;strokeColor=none;fillColor=none;fontFamily=Lucida Console;fontSize=16;" parent="1" vertex="1">
          <mxGeometry x="965" y="260" width="50" height="30" as="geometry" />
        </mxCell>
        <mxCell id="f1EQFG4bd591kKnXFSUB-19" value="Да" style="text;html=1;align=center;verticalAlign=middle;resizable=0;points=[];autosize=1;strokeColor=none;fillColor=none;fontFamily=Lucida Console;fontSize=16;" parent="1" vertex="1">
          <mxGeometry x="890" y="490" width="40" height="30" as="geometry" />
        </mxCell>
        <mxCell id="f1EQFG4bd591kKnXFSUB-20" value="Нет" style="text;html=1;align=center;verticalAlign=middle;resizable=0;points=[];autosize=1;strokeColor=none;fillColor=none;fontFamily=Lucida Console;fontSize=16;" parent="1" vertex="1">
          <mxGeometry x="965" y="430" width="50" height="30" as="geometry" />
        </mxCell>
        <mxCell id="f1EQFG4bd591kKnXFSUB-24" value="" style="edgeStyle=orthogonalEdgeStyle;rounded=0;orthogonalLoop=1;jettySize=auto;html=1;endArrow=none;startFill=0;fontFamily=Lucida Console;fontSize=16;" parent="1" source="f1EQFG4bd591kKnXFSUB-21" target="f1EQFG4bd591kKnXFSUB-23" edge="1">
          <mxGeometry relative="1" as="geometry" />
        </mxCell>
        <mxCell id="f1EQFG4bd591kKnXFSUB-21" value="&lt;div&gt;_cell ++;&lt;/div&gt;" style="rounded=0;whiteSpace=wrap;html=1;fontFamily=Lucida Console;fontSize=16;" parent="1" vertex="1">
          <mxGeometry x="800" y="660" width="180" height="30" as="geometry" />
        </mxCell>
        <mxCell id="f1EQFG4bd591kKnXFSUB-26" value="" style="edgeStyle=orthogonalEdgeStyle;rounded=0;orthogonalLoop=1;jettySize=auto;html=1;endArrow=none;startFill=0;fontFamily=Lucida Console;fontSize=16;" parent="1" source="f1EQFG4bd591kKnXFSUB-23" target="f1EQFG4bd591kKnXFSUB-25" edge="1">
          <mxGeometry relative="1" as="geometry" />
        </mxCell>
        <mxCell id="f1EQFG4bd591kKnXFSUB-32" style="edgeStyle=orthogonalEdgeStyle;rounded=0;orthogonalLoop=1;jettySize=auto;html=1;fontFamily=Lucida Console;fontSize=16;" parent="1" source="f1EQFG4bd591kKnXFSUB-23" edge="1">
          <mxGeometry relative="1" as="geometry">
            <mxPoint x="890" y="140" as="targetPoint" />
            <Array as="points">
              <mxPoint x="1000" y="750" />
              <mxPoint x="1000" y="870" />
              <mxPoint x="740" y="870" />
              <mxPoint x="740" y="140" />
            </Array>
          </mxGeometry>
        </mxCell>
        <mxCell id="f1EQFG4bd591kKnXFSUB-23" value="*_cell != &#39; &#39; and&lt;div&gt;*_cell != &#39;\0&#39;&lt;br&gt;&lt;/div&gt;" style="rhombus;whiteSpace=wrap;html=1;fontSize=16;fontFamily=Lucida Console;rounded=0;" parent="1" vertex="1">
          <mxGeometry x="800" y="710" width="180" height="80" as="geometry" />
        </mxCell>
        <mxCell id="f1EQFG4bd591kKnXFSUB-27" style="edgeStyle=orthogonalEdgeStyle;rounded=0;orthogonalLoop=1;jettySize=auto;html=1;fontFamily=Lucida Console;fontSize=16;" parent="1" source="f1EQFG4bd591kKnXFSUB-25" edge="1">
          <mxGeometry relative="1" as="geometry">
            <mxPoint x="890" y="700" as="targetPoint" />
            <Array as="points">
              <mxPoint x="890" y="850" />
              <mxPoint x="771" y="850" />
              <mxPoint x="771" y="700" />
            </Array>
          </mxGeometry>
        </mxCell>
        <mxCell id="f1EQFG4bd591kKnXFSUB-25" value="&lt;div&gt;_cell ++;&lt;/div&gt;" style="rounded=0;whiteSpace=wrap;html=1;fontFamily=Lucida Console;fontSize=16;" parent="1" vertex="1">
          <mxGeometry x="800" y="810" width="180" height="30" as="geometry" />
        </mxCell>
        <mxCell id="f1EQFG4bd591kKnXFSUB-33" value="Да" style="text;html=1;align=center;verticalAlign=middle;resizable=0;points=[];autosize=1;strokeColor=none;fillColor=none;fontFamily=Lucida Console;fontSize=16;" parent="1" vertex="1">
          <mxGeometry x="890" y="780" width="40" height="30" as="geometry" />
        </mxCell>
        <mxCell id="f1EQFG4bd591kKnXFSUB-34" value="Нет" style="text;html=1;align=center;verticalAlign=middle;resizable=0;points=[];autosize=1;strokeColor=none;fillColor=none;fontFamily=Lucida Console;fontSize=16;" parent="1" vertex="1">
          <mxGeometry x="965" y="720" width="50" height="30" as="geometry" />
        </mxCell>
        <mxCell id="f1EQFG4bd591kKnXFSUB-35" value="Цикл&lt;div&gt;сдвига&lt;/div&gt;&lt;div&gt;символов&lt;/div&gt;&lt;div&gt;на 1&lt;/div&gt;" style="strokeWidth=2;html=1;shape=mxgraph.flowchart.annotation_2;align=left;labelPosition=right;pointerEvents=1;fontFamily=Lucida Console;fontSize=16;" parent="1" vertex="1">
          <mxGeometry x="1020" y="420" width="20" height="150" as="geometry" />
        </mxCell>
        <mxCell id="f1EQFG4bd591kKnXFSUB-36" value="Цикл&lt;div&gt;прохода&lt;/div&gt;&lt;div&gt;пробелов&lt;/div&gt;" style="strokeWidth=2;html=1;shape=mxgraph.flowchart.annotation_2;align=right;labelPosition=left;pointerEvents=1;verticalLabelPosition=middle;verticalAlign=middle;direction=west;fontFamily=Lucida Console;fontSize=16;" parent="1" vertex="1">
          <mxGeometry x="700" y="260" width="30" height="325" as="geometry" />
        </mxCell>
        <mxCell id="f1EQFG4bd591kKnXFSUB-37" value="Цикл&lt;div&gt;пропуска&lt;/div&gt;&lt;div&gt;букв&lt;/div&gt;" style="strokeWidth=2;html=1;shape=mxgraph.flowchart.annotation_2;align=right;labelPosition=left;pointerEvents=1;verticalLabelPosition=middle;verticalAlign=middle;direction=west;fontFamily=Lucida Console;fontSize=16;" parent="1" vertex="1">
          <mxGeometry x="700" y="720" width="20" height="130" as="geometry" />
        </mxCell>
        <mxCell id="f1EQFG4bd591kKnXFSUB-38" value="Пока не&lt;div&gt;дошли до&lt;/div&gt;&lt;div&gt;конца&lt;/div&gt;&lt;div&gt;строки&lt;/div&gt;" style="strokeWidth=2;html=1;shape=mxgraph.flowchart.annotation_2;align=right;labelPosition=left;pointerEvents=1;fontFamily=Lucida Console;fontSize=16;direction=west;verticalLabelPosition=middle;verticalAlign=middle;" parent="1" vertex="1">
          <mxGeometry x="700" y="160" width="20" height="60" as="geometry" />
        </mxCell>
        <mxCell id="JvH_zXGZEXURWCZafHmw-3" value="" style="edgeStyle=orthogonalEdgeStyle;rounded=0;orthogonalLoop=1;jettySize=auto;html=1;endArrow=none;startFill=0;fontFamily=Lucida Console;" parent="1" source="JvH_zXGZEXURWCZafHmw-1" target="JvH_zXGZEXURWCZafHmw-2" edge="1">
          <mxGeometry relative="1" as="geometry" />
        </mxCell>
        <mxCell id="JvH_zXGZEXURWCZafHmw-10" style="edgeStyle=orthogonalEdgeStyle;rounded=0;orthogonalLoop=1;jettySize=auto;html=1;endArrow=none;startFill=0;fontFamily=Lucida Console;" parent="1" source="JvH_zXGZEXURWCZafHmw-1" target="JvH_zXGZEXURWCZafHmw-9" edge="1">
          <mxGeometry relative="1" as="geometry" />
        </mxCell>
        <mxCell id="JvH_zXGZEXURWCZafHmw-1" value="*cell == &#39; &#39;" style="rhombus;whiteSpace=wrap;html=1;fontSize=16;fontFamily=Lucida Console;rounded=0;" parent="1" vertex="1">
          <mxGeometry x="800" y="900" width="180" height="80" as="geometry" />
        </mxCell>
        <mxCell id="JvH_zXGZEXURWCZafHmw-5" value="" style="edgeStyle=orthogonalEdgeStyle;rounded=0;orthogonalLoop=1;jettySize=auto;html=1;endArrow=none;startFill=0;fontFamily=Lucida Console;" parent="1" source="JvH_zXGZEXURWCZafHmw-2" target="JvH_zXGZEXURWCZafHmw-4" edge="1">
          <mxGeometry relative="1" as="geometry" />
        </mxCell>
        <mxCell id="JvH_zXGZEXURWCZafHmw-2" value="*cell != &#39;\0&#39;" style="rhombus;whiteSpace=wrap;html=1;fontSize=16;fontFamily=Lucida Console;rounded=0;" parent="1" vertex="1">
          <mxGeometry x="800" y="1000" width="180" height="80" as="geometry" />
        </mxCell>
        <mxCell id="JvH_zXGZEXURWCZafHmw-6" style="edgeStyle=orthogonalEdgeStyle;rounded=0;orthogonalLoop=1;jettySize=auto;html=1;fontFamily=Lucida Console;" parent="1" source="JvH_zXGZEXURWCZafHmw-4" edge="1">
          <mxGeometry relative="1" as="geometry">
            <mxPoint x="890" y="990" as="targetPoint" />
            <Array as="points">
              <mxPoint x="890" y="1160" />
              <mxPoint x="780" y="1160" />
              <mxPoint x="780" y="990" />
            </Array>
          </mxGeometry>
        </mxCell>
        <mxCell id="JvH_zXGZEXURWCZafHmw-4" value="*cell = *(cell+1);&lt;br&gt;&lt;div&gt;&lt;span style=&quot;background-color: transparent; color: light-dark(rgb(0, 0, 0), rgb(255, 255, 255));&quot;&gt;cell&lt;/span&gt;&amp;nbsp;++;&lt;/div&gt;" style="rounded=0;whiteSpace=wrap;html=1;fontFamily=Lucida Console;fontSize=16;" parent="1" vertex="1">
          <mxGeometry x="800" y="1100" width="180" height="50" as="geometry" />
        </mxCell>
        <mxCell id="JvH_zXGZEXURWCZafHmw-8" value="Если&lt;div&gt;строка&lt;/div&gt;&lt;div&gt;начинается&lt;/div&gt;&lt;div&gt;с пробела,&lt;/div&gt;&lt;div&gt;удаляем&lt;/div&gt;&lt;div&gt;его&lt;/div&gt;" style="strokeWidth=2;html=1;shape=mxgraph.flowchart.annotation_2;align=right;labelPosition=left;pointerEvents=1;verticalLabelPosition=middle;verticalAlign=middle;direction=west;fontFamily=Lucida Console;fontSize=16;" parent="1" vertex="1">
          <mxGeometry x="705" y="900" width="20" height="260" as="geometry" />
        </mxCell>
        <mxCell id="JvH_zXGZEXURWCZafHmw-9" value="Конец" style="rounded=1;whiteSpace=wrap;html=1;arcSize=50;fontFamily=Lucida Console;fontSize=16;" parent="1" vertex="1">
          <mxGeometry x="990" y="1010" width="180" height="60" as="geometry" />
        </mxCell>
        <mxCell id="JvH_zXGZEXURWCZafHmw-11" value="Да" style="text;html=1;align=center;verticalAlign=middle;resizable=0;points=[];autosize=1;strokeColor=none;fillColor=none;fontFamily=Lucida Console;fontSize=16;" parent="1" vertex="1">
          <mxGeometry x="890" y="970" width="40" height="30" as="geometry" />
        </mxCell>
        <mxCell id="JvH_zXGZEXURWCZafHmw-12" value="Нет" style="text;html=1;align=center;verticalAlign=middle;resizable=0;points=[];autosize=1;strokeColor=none;fillColor=none;fontFamily=Lucida Console;fontSize=16;" parent="1" vertex="1">
          <mxGeometry x="965" y="910" width="50" height="30" as="geometry" />
        </mxCell>
        <mxCell id="x2e8kkigGFOHThG4VKeh-1" value="Начало&lt;div&gt;void swap_longest_words&lt;/div&gt;&lt;div&gt;(char * cell )&lt;/div&gt;" style="rounded=1;whiteSpace=wrap;html=1;arcSize=50;fontFamily=Lucida Console;fontSize=16;" vertex="1" parent="1">
          <mxGeometry x="1380" width="180" height="60" as="geometry" />
        </mxCell>
        <mxCell id="x2e8kkigGFOHThG4VKeh-2" value="&lt;div&gt;&lt;br&gt;&lt;/div&gt;char* _cell = cell;&amp;nbsp;&lt;div&gt;int max_length = 0;&amp;nbsp;&lt;div&gt;char* longest_word_start&amp;nbsp; = 0;&lt;span style=&quot;background-color: transparent; color: light-dark(rgb(0, 0, 0), rgb(255, 255, 255));&quot;&gt;&amp;nbsp;char* start;&lt;/span&gt;&lt;/div&gt;&lt;div&gt;&lt;div&gt;int current_length&lt;br&gt;&lt;div&gt;&lt;div&gt;&lt;br&gt;&lt;/div&gt;&lt;/div&gt;&lt;/div&gt;&lt;/div&gt;&lt;/div&gt;" style="rounded=0;whiteSpace=wrap;html=1;fontFamily=Lucida Console;fontSize=16;" vertex="1" parent="1">
          <mxGeometry x="1340" y="80" width="260" height="130" as="geometry" />
        </mxCell>
        <mxCell id="x2e8kkigGFOHThG4VKeh-4" value="cell != nullptr&lt;div&gt;and&lt;/div&gt;&lt;div&gt;strlen(cell)&amp;nbsp;&lt;/div&gt;&lt;div&gt;&amp;gt;= 2&amp;nbsp;&lt;/div&gt;" style="rhombus;whiteSpace=wrap;html=1;fontSize=16;fontFamily=Lucida Console;rounded=0;" vertex="1" parent="1">
          <mxGeometry x="1377.5" y="220" width="185" height="90" as="geometry" />
        </mxCell>
        <mxCell id="x2e8kkigGFOHThG4VKeh-5" value="" style="endArrow=none;html=1;rounded=0;fontSize=12;startSize=8;endSize=8;curved=1;entryX=0.5;entryY=0;entryDx=0;entryDy=0;exitX=0.5;exitY=1;exitDx=0;exitDy=0;" edge="1" parent="1" source="x2e8kkigGFOHThG4VKeh-1" target="x2e8kkigGFOHThG4VKeh-2">
          <mxGeometry width="50" height="50" relative="1" as="geometry">
            <mxPoint x="950" y="540" as="sourcePoint" />
            <mxPoint x="1000" y="490" as="targetPoint" />
          </mxGeometry>
        </mxCell>
        <mxCell id="x2e8kkigGFOHThG4VKeh-6" value="*_cell != &#39;\0&#39;" style="rhombus;whiteSpace=wrap;html=1;fontSize=16;fontFamily=Lucida Console;rounded=0;" vertex="1" parent="1">
          <mxGeometry x="1379.97" y="340" width="180" height="80" as="geometry" />
        </mxCell>
        <mxCell id="x2e8kkigGFOHThG4VKeh-7" value="*_cell == &#39; &#39;" style="rhombus;whiteSpace=wrap;html=1;fontSize=16;fontFamily=Lucida Console;rounded=0;" vertex="1" parent="1">
          <mxGeometry x="1379.93" y="440" width="180" height="80" as="geometry" />
        </mxCell>
        <mxCell id="x2e8kkigGFOHThG4VKeh-8" value="&lt;div&gt;start = _cell&lt;/div&gt;" style="rounded=0;whiteSpace=wrap;html=1;fontFamily=Lucida Console;fontSize=16;" vertex="1" parent="1">
          <mxGeometry x="1379.93" y="610" width="180" height="50" as="geometry" />
        </mxCell>
        <mxCell id="x2e8kkigGFOHThG4VKeh-9" value="*_cell != &#39; &#39;&lt;div&gt;and&amp;nbsp;&lt;/div&gt;&lt;div&gt;*_cell != &#39;\0&#39;&lt;/div&gt;" style="rhombus;whiteSpace=wrap;html=1;fontSize=16;fontFamily=Lucida Console;rounded=0;" vertex="1" parent="1">
          <mxGeometry x="1380" y="677" width="180" height="80" as="geometry" />
        </mxCell>
        <mxCell id="x2e8kkigGFOHThG4VKeh-10" value="&lt;div&gt;current_length = _cell - start&lt;/div&gt;" style="rounded=0;whiteSpace=wrap;html=1;fontFamily=Lucida Console;fontSize=16;" vertex="1" parent="1">
          <mxGeometry x="1379.93" y="840" width="180" height="50" as="geometry" />
        </mxCell>
        <mxCell id="x2e8kkigGFOHThG4VKeh-11" value="current_length &amp;gt; max_length" style="rhombus;whiteSpace=wrap;html=1;fontSize=16;fontFamily=Lucida Console;rounded=0;" vertex="1" parent="1">
          <mxGeometry x="1379.93" y="900" width="180" height="80" as="geometry" />
        </mxCell>
        <mxCell id="x2e8kkigGFOHThG4VKeh-12" value="&lt;div&gt;&lt;span style=&quot;background-color: transparent; color: light-dark(rgb(0, 0, 0), rgb(255, 255, 255));&quot;&gt;max_length = current_length;&lt;/span&gt;&lt;/div&gt;" style="rounded=0;whiteSpace=wrap;html=1;fontFamily=Lucida Console;fontSize=16;" vertex="1" parent="1">
          <mxGeometry x="1380" y="995" width="180" height="75" as="geometry" />
        </mxCell>
        <mxCell id="x2e8kkigGFOHThG4VKeh-14" value="_cell = cell" style="rounded=0;whiteSpace=wrap;html=1;fontFamily=Lucida Console;fontSize=16;" vertex="1" parent="1">
          <mxGeometry x="1394.7500000000002" y="1360" width="150.07" height="75" as="geometry" />
        </mxCell>
        <mxCell id="x2e8kkigGFOHThG4VKeh-18" value="2" style="ellipse;whiteSpace=wrap;html=1;aspect=fixed;" vertex="1" parent="1">
          <mxGeometry x="1444.93" y="1090" width="50" height="50" as="geometry" />
        </mxCell>
        <mxCell id="x2e8kkigGFOHThG4VKeh-19" value="2" style="ellipse;whiteSpace=wrap;html=1;aspect=fixed;" vertex="1" parent="1">
          <mxGeometry x="1445" y="1180" width="50" height="50" as="geometry" />
        </mxCell>
        <mxCell id="x2e8kkigGFOHThG4VKeh-20" value="" style="endArrow=none;html=1;rounded=0;fontSize=12;startSize=8;endSize=8;curved=1;exitX=0.5;exitY=1;exitDx=0;exitDy=0;entryX=0.5;entryY=0;entryDx=0;entryDy=0;" edge="1" parent="1" source="x2e8kkigGFOHThG4VKeh-19" target="x2e8kkigGFOHThG4VKeh-149">
          <mxGeometry width="50" height="50" relative="1" as="geometry">
            <mxPoint x="860" y="1440" as="sourcePoint" />
            <mxPoint x="1550" y="1270" as="targetPoint" />
          </mxGeometry>
        </mxCell>
        <mxCell id="x2e8kkigGFOHThG4VKeh-29" value="" style="endArrow=none;html=1;rounded=0;fontSize=12;startSize=8;endSize=8;curved=1;exitX=0.5;exitY=1;exitDx=0;exitDy=0;entryX=0.5;entryY=0;entryDx=0;entryDy=0;" edge="1" parent="1" source="x2e8kkigGFOHThG4VKeh-2" target="x2e8kkigGFOHThG4VKeh-4">
          <mxGeometry width="50" height="50" relative="1" as="geometry">
            <mxPoint x="1560" y="140" as="sourcePoint" />
            <mxPoint x="1610" y="90" as="targetPoint" />
          </mxGeometry>
        </mxCell>
        <mxCell id="x2e8kkigGFOHThG4VKeh-30" value="" style="endArrow=none;html=1;rounded=0;fontSize=12;startSize=8;endSize=8;curved=1;exitX=0.5;exitY=1;exitDx=0;exitDy=0;entryX=0.5;entryY=0;entryDx=0;entryDy=0;" edge="1" parent="1" source="x2e8kkigGFOHThG4VKeh-4" target="x2e8kkigGFOHThG4VKeh-6">
          <mxGeometry width="50" height="50" relative="1" as="geometry">
            <mxPoint x="1469.97" y="330" as="sourcePoint" />
            <mxPoint x="1609.97" y="110" as="targetPoint" />
          </mxGeometry>
        </mxCell>
        <mxCell id="x2e8kkigGFOHThG4VKeh-32" value="_cell = _cell+1" style="rounded=0;whiteSpace=wrap;html=1;fontFamily=Lucida Console;fontSize=16;" vertex="1" parent="1">
          <mxGeometry x="1379.93" y="540" width="180" height="50" as="geometry" />
        </mxCell>
        <mxCell id="x2e8kkigGFOHThG4VKeh-34" value="3" style="ellipse;whiteSpace=wrap;html=1;aspect=fixed;" vertex="1" parent="1">
          <mxGeometry x="1654" y="1100" width="50" height="50" as="geometry" />
        </mxCell>
        <mxCell id="x2e8kkigGFOHThG4VKeh-37" value="" style="endArrow=classic;html=1;rounded=0;fontSize=12;startSize=8;endSize=8;exitX=1;exitY=0.5;exitDx=0;exitDy=0;entryX=0.5;entryY=0;entryDx=0;entryDy=0;" edge="1" parent="1" source="x2e8kkigGFOHThG4VKeh-4" target="x2e8kkigGFOHThG4VKeh-34">
          <mxGeometry width="50" height="50" relative="1" as="geometry">
            <mxPoint x="1780" y="830" as="sourcePoint" />
            <mxPoint x="1830" y="780" as="targetPoint" />
            <Array as="points">
              <mxPoint x="1680" y="265" />
            </Array>
          </mxGeometry>
        </mxCell>
        <mxCell id="x2e8kkigGFOHThG4VKeh-38" value="3" style="ellipse;whiteSpace=wrap;html=1;aspect=fixed;" vertex="1" parent="1">
          <mxGeometry x="1656" y="1191" width="50" height="50" as="geometry" />
        </mxCell>
        <mxCell id="x2e8kkigGFOHThG4VKeh-39" value="" style="endArrow=classic;html=1;rounded=0;fontSize=12;startSize=8;endSize=8;exitX=0.5;exitY=1;exitDx=0;exitDy=0;" edge="1" parent="1" source="x2e8kkigGFOHThG4VKeh-38">
          <mxGeometry width="50" height="50" relative="1" as="geometry">
            <mxPoint x="1722" y="1601" as="sourcePoint" />
            <mxPoint x="1470" y="2250" as="targetPoint" />
            <Array as="points">
              <mxPoint x="1681" y="1801" />
              <mxPoint x="1681" y="2250" />
            </Array>
          </mxGeometry>
        </mxCell>
        <mxCell id="x2e8kkigGFOHThG4VKeh-45" value="" style="endArrow=none;html=1;rounded=0;fontSize=12;startSize=8;endSize=8;curved=1;exitX=0.5;exitY=1;exitDx=0;exitDy=0;entryX=0.5;entryY=0;entryDx=0;entryDy=0;" edge="1" parent="1" source="x2e8kkigGFOHThG4VKeh-32" target="x2e8kkigGFOHThG4VKeh-8">
          <mxGeometry width="50" height="50" relative="1" as="geometry">
            <mxPoint x="1309.9" y="840" as="sourcePoint" />
            <mxPoint x="1359.9" y="790" as="targetPoint" />
          </mxGeometry>
        </mxCell>
        <mxCell id="x2e8kkigGFOHThG4VKeh-46" value="_cell = _cell+1" style="rounded=0;whiteSpace=wrap;html=1;fontFamily=Lucida Console;fontSize=16;" vertex="1" parent="1">
          <mxGeometry x="1379.93" y="770" width="180" height="50" as="geometry" />
        </mxCell>
        <mxCell id="x2e8kkigGFOHThG4VKeh-47" value="" style="endArrow=classic;html=1;rounded=0;fontSize=12;startSize=8;endSize=8;exitX=1;exitY=0.5;exitDx=0;exitDy=0;" edge="1" parent="1" source="x2e8kkigGFOHThG4VKeh-6">
          <mxGeometry width="50" height="50" relative="1" as="geometry">
            <mxPoint x="1780" y="470" as="sourcePoint" />
            <mxPoint x="1470" y="1080" as="targetPoint" />
            <Array as="points">
              <mxPoint x="1630" y="380" />
              <mxPoint x="1630" y="1080" />
            </Array>
          </mxGeometry>
        </mxCell>
        <mxCell id="x2e8kkigGFOHThG4VKeh-57" value="" style="endArrow=classic;html=1;rounded=0;fontSize=12;startSize=8;endSize=8;exitX=0;exitY=0.5;exitDx=0;exitDy=0;" edge="1" parent="1" source="x2e8kkigGFOHThG4VKeh-32">
          <mxGeometry width="50" height="50" relative="1" as="geometry">
            <mxPoint x="1480" y="860" as="sourcePoint" />
            <mxPoint x="1470" y="430" as="targetPoint" />
            <Array as="points">
              <mxPoint x="1360" y="565" />
              <mxPoint x="1360" y="430" />
            </Array>
          </mxGeometry>
        </mxCell>
        <mxCell id="x2e8kkigGFOHThG4VKeh-58" value="" style="endArrow=none;html=1;rounded=0;fontSize=12;startSize=8;endSize=8;curved=1;exitX=0.5;exitY=1;exitDx=0;exitDy=0;entryX=0.5;entryY=0;entryDx=0;entryDy=0;" edge="1" parent="1" source="x2e8kkigGFOHThG4VKeh-6" target="x2e8kkigGFOHThG4VKeh-7">
          <mxGeometry width="50" height="50" relative="1" as="geometry">
            <mxPoint x="1470" y="570" as="sourcePoint" />
            <mxPoint x="1520" y="520" as="targetPoint" />
          </mxGeometry>
        </mxCell>
        <mxCell id="x2e8kkigGFOHThG4VKeh-59" value="" style="endArrow=none;html=1;rounded=0;fontSize=12;startSize=8;endSize=8;curved=1;exitX=0.5;exitY=1;exitDx=0;exitDy=0;entryX=0.5;entryY=0;entryDx=0;entryDy=0;" edge="1" parent="1" source="x2e8kkigGFOHThG4VKeh-7" target="x2e8kkigGFOHThG4VKeh-32">
          <mxGeometry width="50" height="50" relative="1" as="geometry">
            <mxPoint x="1470" y="570" as="sourcePoint" />
            <mxPoint x="1520" y="520" as="targetPoint" />
          </mxGeometry>
        </mxCell>
        <mxCell id="x2e8kkigGFOHThG4VKeh-60" value="" style="endArrow=classic;html=1;rounded=0;fontSize=12;startSize=8;endSize=8;exitX=0;exitY=0.5;exitDx=0;exitDy=0;" edge="1" parent="1" source="x2e8kkigGFOHThG4VKeh-46">
          <mxGeometry width="50" height="50" relative="1" as="geometry">
            <mxPoint x="1562" y="812" as="sourcePoint" />
            <mxPoint x="1470" y="670" as="targetPoint" />
            <Array as="points">
              <mxPoint x="1362" y="795" />
              <mxPoint x="1362" y="670" />
            </Array>
          </mxGeometry>
        </mxCell>
        <mxCell id="x2e8kkigGFOHThG4VKeh-61" value="" style="endArrow=none;html=1;rounded=0;fontSize=12;startSize=8;endSize=8;curved=1;exitX=0.5;exitY=1;exitDx=0;exitDy=0;entryX=0.5;entryY=0;entryDx=0;entryDy=0;" edge="1" parent="1" source="x2e8kkigGFOHThG4VKeh-8" target="x2e8kkigGFOHThG4VKeh-9">
          <mxGeometry width="50" height="50" relative="1" as="geometry">
            <mxPoint x="1560" y="820" as="sourcePoint" />
            <mxPoint x="1610" y="770" as="targetPoint" />
          </mxGeometry>
        </mxCell>
        <mxCell id="x2e8kkigGFOHThG4VKeh-62" value="" style="endArrow=none;html=1;rounded=0;fontSize=12;startSize=8;endSize=8;curved=1;exitX=0.5;exitY=1;exitDx=0;exitDy=0;entryX=0.5;entryY=0;entryDx=0;entryDy=0;" edge="1" parent="1" source="x2e8kkigGFOHThG4VKeh-9" target="x2e8kkigGFOHThG4VKeh-46">
          <mxGeometry width="50" height="50" relative="1" as="geometry">
            <mxPoint x="1560" y="820" as="sourcePoint" />
            <mxPoint x="1610" y="770" as="targetPoint" />
          </mxGeometry>
        </mxCell>
        <mxCell id="x2e8kkigGFOHThG4VKeh-63" value="" style="endArrow=classic;html=1;rounded=0;fontSize=12;startSize=8;endSize=8;exitX=1;exitY=0.5;exitDx=0;exitDy=0;" edge="1" parent="1" source="x2e8kkigGFOHThG4VKeh-7">
          <mxGeometry width="50" height="50" relative="1" as="geometry">
            <mxPoint x="1560" y="610" as="sourcePoint" />
            <mxPoint x="1470" y="600" as="targetPoint" />
            <Array as="points">
              <mxPoint x="1580" y="480" />
              <mxPoint x="1580" y="600" />
            </Array>
          </mxGeometry>
        </mxCell>
        <mxCell id="x2e8kkigGFOHThG4VKeh-64" value="" style="endArrow=classic;html=1;rounded=0;fontSize=12;startSize=8;endSize=8;exitX=1;exitY=0.5;exitDx=0;exitDy=0;" edge="1" parent="1" source="x2e8kkigGFOHThG4VKeh-9">
          <mxGeometry width="50" height="50" relative="1" as="geometry">
            <mxPoint x="1560" y="710" as="sourcePoint" />
            <mxPoint x="1470" y="830" as="targetPoint" />
            <Array as="points">
              <mxPoint x="1580" y="717" />
              <mxPoint x="1580" y="830" />
            </Array>
          </mxGeometry>
        </mxCell>
        <mxCell id="x2e8kkigGFOHThG4VKeh-65" value="" style="endArrow=none;html=1;rounded=0;fontSize=12;startSize=8;endSize=8;curved=1;exitX=0.5;exitY=1;exitDx=0;exitDy=0;entryX=0.5;entryY=0;entryDx=0;entryDy=0;" edge="1" parent="1" source="x2e8kkigGFOHThG4VKeh-46" target="x2e8kkigGFOHThG4VKeh-10">
          <mxGeometry width="50" height="50" relative="1" as="geometry">
            <mxPoint x="1560" y="820" as="sourcePoint" />
            <mxPoint x="1610" y="770" as="targetPoint" />
          </mxGeometry>
        </mxCell>
        <mxCell id="x2e8kkigGFOHThG4VKeh-66" value="" style="endArrow=none;html=1;rounded=0;fontSize=12;startSize=8;endSize=8;curved=1;exitX=0.5;exitY=1;exitDx=0;exitDy=0;entryX=0.5;entryY=0;entryDx=0;entryDy=0;" edge="1" parent="1" source="x2e8kkigGFOHThG4VKeh-10" target="x2e8kkigGFOHThG4VKeh-11">
          <mxGeometry width="50" height="50" relative="1" as="geometry">
            <mxPoint x="1560" y="920" as="sourcePoint" />
            <mxPoint x="1610" y="870" as="targetPoint" />
          </mxGeometry>
        </mxCell>
        <mxCell id="x2e8kkigGFOHThG4VKeh-68" value="" style="endArrow=none;html=1;rounded=0;fontSize=12;startSize=8;endSize=8;curved=1;exitX=0.5;exitY=1;exitDx=0;exitDy=0;entryX=0.5;entryY=0;entryDx=0;entryDy=0;" edge="1" parent="1" source="x2e8kkigGFOHThG4VKeh-11" target="x2e8kkigGFOHThG4VKeh-12">
          <mxGeometry width="50" height="50" relative="1" as="geometry">
            <mxPoint x="1460" y="1000" as="sourcePoint" />
            <mxPoint x="1510" y="950" as="targetPoint" />
          </mxGeometry>
        </mxCell>
        <mxCell id="x2e8kkigGFOHThG4VKeh-85" value="Цикл&amp;nbsp;&lt;div&gt;прохода&amp;nbsp;&lt;div&gt;по всем&amp;nbsp;&lt;/div&gt;&lt;div&gt;словам&lt;/div&gt;&lt;/div&gt;" style="strokeWidth=2;html=1;shape=mxgraph.flowchart.annotation_2;align=right;labelPosition=left;pointerEvents=1;fontFamily=Lucida Console;fontSize=16;direction=west;verticalLabelPosition=middle;verticalAlign=middle;" vertex="1" parent="1">
          <mxGeometry x="1300" y="350" width="20" height="60" as="geometry" />
        </mxCell>
        <mxCell id="x2e8kkigGFOHThG4VKeh-86" value="Цикл&amp;nbsp;&lt;div&gt;прохода&amp;nbsp;&lt;/div&gt;&lt;div&gt;пробелов&lt;/div&gt;" style="strokeWidth=2;html=1;shape=mxgraph.flowchart.annotation_2;align=right;labelPosition=left;pointerEvents=1;fontFamily=Lucida Console;fontSize=16;direction=west;verticalLabelPosition=middle;verticalAlign=middle;" vertex="1" parent="1">
          <mxGeometry x="1300" y="450" width="20" height="130" as="geometry" />
        </mxCell>
        <mxCell id="x2e8kkigGFOHThG4VKeh-87" value="&lt;blockquote style=&quot;margin: 0 0 0 40px; border: none; padding: 0px;&quot;&gt;&lt;blockquote style=&quot;margin: 0 0 0 40px; border: none; padding: 0px;&quot;&gt;&lt;blockquote style=&quot;margin: 0 0 0 40px; border: none; padding: 0px;&quot;&gt;&lt;span style=&quot;background-color: transparent; color: light-dark(rgb(0, 0, 0), rgb(255, 255, 255));&quot;&gt;Цикл&amp;nbsp;&lt;/span&gt;&lt;/blockquote&gt;&lt;/blockquote&gt;&lt;blockquote style=&quot;margin: 0 0 0 40px; border: none; padding: 0px;&quot;&gt;&lt;blockquote style=&quot;margin: 0 0 0 40px; border: none; padding: 0px;&quot;&gt;&lt;span style=&quot;background-color: transparent; color: light-dark(rgb(0, 0, 0), rgb(255, 255, 255));&quot;&gt;прохода&amp;nbsp;&lt;/span&gt;&lt;/blockquote&gt;&lt;/blockquote&gt;&lt;blockquote style=&quot;margin: 0 0 0 40px; border: none; padding: 0px;&quot;&gt;&lt;blockquote style=&quot;margin: 0 0 0 40px; border: none; padding: 0px;&quot;&gt;&lt;div&gt;букв&lt;/div&gt;&lt;/blockquote&gt;&lt;/blockquote&gt;&lt;/blockquote&gt;" style="strokeWidth=2;html=1;shape=mxgraph.flowchart.annotation_2;align=right;labelPosition=left;pointerEvents=1;fontFamily=Lucida Console;fontSize=16;direction=west;verticalLabelPosition=middle;verticalAlign=middle;" vertex="1" parent="1">
          <mxGeometry x="1300" y="680" width="20" height="130" as="geometry" />
        </mxCell>
        <mxCell id="x2e8kkigGFOHThG4VKeh-89" value="&lt;blockquote style=&quot;margin: 0 0 0 40px; border: none; padding: 0px;&quot;&gt;&lt;blockquote style=&quot;margin: 0 0 0 40px; border: none; padding: 0px;&quot;&gt;&lt;blockquote style=&quot;margin: 0 0 0 40px; border: none; padding: 0px;&quot;&gt;Меняем&amp;nbsp;&lt;/blockquote&gt;&lt;blockquote style=&quot;margin: 0px 0px 0px 40px; border: none; padding: 0px;&quot;&gt;последнюю&amp;nbsp;&lt;/blockquote&gt;&lt;blockquote style=&quot;margin: 0px 0px 0px 40px; border: none; padding: 0px;&quot;&gt;и первую&lt;/blockquote&gt;&lt;blockquote style=&quot;margin: 0px 0px 0px 40px; border: none; padding: 0px;&quot;&gt;буквы&lt;/blockquote&gt;&lt;blockquote style=&quot;margin: 0 0 0 40px; border: none; padding: 0px;&quot;&gt;местами&lt;/blockquote&gt;&lt;blockquote style=&quot;margin: 0 0 0 40px; border: none; padding: 0px;&quot;&gt;&lt;br&gt;&lt;/blockquote&gt;&lt;/blockquote&gt;&lt;/blockquote&gt;" style="strokeWidth=2;html=1;shape=mxgraph.flowchart.annotation_2;align=right;labelPosition=left;pointerEvents=1;fontFamily=Lucida Console;fontSize=16;direction=west;verticalLabelPosition=middle;verticalAlign=middle;" vertex="1" parent="1">
          <mxGeometry x="1270" y="2112.5" width="20" height="115" as="geometry" />
        </mxCell>
        <mxCell id="x2e8kkigGFOHThG4VKeh-91" value="Да" style="text;html=1;align=center;verticalAlign=middle;resizable=0;points=[];autosize=1;strokeColor=none;fillColor=none;fontSize=16;fontFamily=Lucida Console;fontColor=default;" vertex="1" parent="1">
          <mxGeometry x="1480" y="310" width="40" height="30" as="geometry" />
        </mxCell>
        <mxCell id="x2e8kkigGFOHThG4VKeh-92" value="Нет" style="text;html=1;align=center;verticalAlign=middle;resizable=0;points=[];autosize=1;strokeColor=none;fillColor=none;fontSize=16;fontFamily=Lucida Console;fontColor=default;" vertex="1" parent="1">
          <mxGeometry x="1559.93" y="230" width="50" height="30" as="geometry" />
        </mxCell>
        <mxCell id="x2e8kkigGFOHThG4VKeh-93" value="Да" style="text;html=1;align=center;verticalAlign=middle;resizable=0;points=[];autosize=1;strokeColor=none;fillColor=none;fontSize=16;fontFamily=Lucida Console;fontColor=default;" vertex="1" parent="1">
          <mxGeometry x="1480" y="420" width="40" height="30" as="geometry" />
        </mxCell>
        <mxCell id="x2e8kkigGFOHThG4VKeh-95" value="Нет" style="text;html=1;align=center;verticalAlign=middle;resizable=0;points=[];autosize=1;strokeColor=none;fillColor=none;fontSize=16;fontFamily=Lucida Console;fontColor=default;" vertex="1" parent="1">
          <mxGeometry x="1549.93" y="340" width="50" height="30" as="geometry" />
        </mxCell>
        <mxCell id="x2e8kkigGFOHThG4VKeh-96" value="Нет" style="text;html=1;align=center;verticalAlign=middle;resizable=0;points=[];autosize=1;strokeColor=none;fillColor=none;fontSize=16;fontFamily=Lucida Console;fontColor=default;" vertex="1" parent="1">
          <mxGeometry x="1544.96" y="445" width="50" height="30" as="geometry" />
        </mxCell>
        <mxCell id="x2e8kkigGFOHThG4VKeh-97" value="Да" style="text;html=1;align=center;verticalAlign=middle;resizable=0;points=[];autosize=1;strokeColor=none;fillColor=none;fontSize=16;fontFamily=Lucida Console;fontColor=default;" vertex="1" parent="1">
          <mxGeometry x="1480" y="510" width="40" height="30" as="geometry" />
        </mxCell>
        <mxCell id="x2e8kkigGFOHThG4VKeh-98" value="Да" style="text;html=1;align=center;verticalAlign=middle;resizable=0;points=[];autosize=1;strokeColor=none;fillColor=none;fontSize=16;fontFamily=Lucida Console;fontColor=default;" vertex="1" parent="1">
          <mxGeometry x="1480" y="740" width="40" height="30" as="geometry" />
        </mxCell>
        <mxCell id="x2e8kkigGFOHThG4VKeh-99" value="Нет" style="text;html=1;align=center;verticalAlign=middle;resizable=0;points=[];autosize=1;strokeColor=none;fillColor=none;fontSize=16;fontFamily=Lucida Console;fontColor=default;" vertex="1" parent="1">
          <mxGeometry x="1550" y="690" width="50" height="30" as="geometry" />
        </mxCell>
        <mxCell id="x2e8kkigGFOHThG4VKeh-100" value="Нет" style="text;html=1;align=center;verticalAlign=middle;resizable=0;points=[];autosize=1;strokeColor=none;fillColor=none;fontSize=16;fontFamily=Lucida Console;fontColor=default;" vertex="1" parent="1">
          <mxGeometry x="1360" y="900" width="50" height="30" as="geometry" />
        </mxCell>
        <mxCell id="x2e8kkigGFOHThG4VKeh-101" value="Да" style="text;html=1;align=center;verticalAlign=middle;resizable=0;points=[];autosize=1;strokeColor=none;fillColor=none;fontSize=16;fontFamily=Lucida Console;fontColor=default;" vertex="1" parent="1">
          <mxGeometry x="1480" y="970" width="40" height="30" as="geometry" />
        </mxCell>
        <mxCell id="x2e8kkigGFOHThG4VKeh-107" value="&lt;blockquote style=&quot;margin: 0 0 0 40px; border: none; padding: 0px;&quot;&gt;&lt;blockquote style=&quot;margin: 0 0 0 40px; border: none; padding: 0px;&quot;&gt;&lt;blockquote style=&quot;margin: 0 0 0 40px; border: none; padding: 0px;&quot;&gt;Если&amp;nbsp;&lt;/blockquote&gt;&lt;blockquote style=&quot;margin: 0 0 0 40px; border: none; padding: 0px;&quot;&gt;длина&amp;nbsp;&lt;/blockquote&gt;&lt;blockquote style=&quot;margin: 0 0 0 40px; border: none; padding: 0px;&quot;&gt;текущего&amp;nbsp;&lt;/blockquote&gt;&lt;blockquote style=&quot;margin: 0 0 0 40px; border: none; padding: 0px;&quot;&gt;слова&amp;nbsp;&lt;/blockquote&gt;&lt;blockquote style=&quot;margin: 0 0 0 40px; border: none; padding: 0px;&quot;&gt;больше&amp;nbsp;&lt;/blockquote&gt;&lt;blockquote style=&quot;margin: 0 0 0 40px; border: none; padding: 0px;&quot;&gt;максимальной&lt;/blockquote&gt;&lt;/blockquote&gt;&lt;/blockquote&gt;" style="strokeWidth=2;html=1;shape=mxgraph.flowchart.annotation_2;align=right;labelPosition=left;pointerEvents=1;fontFamily=Lucida Console;fontSize=16;direction=west;verticalLabelPosition=middle;verticalAlign=middle;" vertex="1" parent="1">
          <mxGeometry x="1300" y="925" width="20" height="150" as="geometry" />
        </mxCell>
        <mxCell id="x2e8kkigGFOHThG4VKeh-108" value="&lt;blockquote style=&quot;margin: 0 0 0 40px; border: none; padding: 0px;&quot;&gt;&lt;blockquote style=&quot;margin: 0 0 0 40px; border: none; padding: 0px;&quot;&gt;&lt;blockquote style=&quot;margin: 0 0 0 40px; border: none; padding: 0px;&quot;&gt;Если&amp;nbsp;&lt;span style=&quot;background-color: transparent; color: light-dark(rgb(0, 0, 0), rgb(255, 255, 255));&quot;&gt;все&amp;nbsp;&lt;/span&gt;&lt;/blockquote&gt;&lt;blockquote style=&quot;margin: 0 0 0 40px; border: none; padding: 0px;&quot;&gt;&lt;span style=&quot;background-color: transparent; color: light-dark(rgb(0, 0, 0), rgb(255, 255, 255));&quot;&gt;слова&amp;nbsp;&lt;/span&gt;&lt;span style=&quot;background-color: transparent; color: light-dark(rgb(0, 0, 0), rgb(255, 255, 255));&quot;&gt;в строке&amp;nbsp;&lt;/span&gt;&lt;/blockquote&gt;&lt;blockquote style=&quot;margin: 0 0 0 40px; border: none; padding: 0px;&quot;&gt;по одной&amp;nbsp;&lt;span style=&quot;background-color: transparent; color: light-dark(rgb(0, 0, 0), rgb(255, 255, 255));&quot;&gt;букве то&amp;nbsp;&lt;/span&gt;&lt;/blockquote&gt;&lt;blockquote style=&quot;margin: 0 0 0 40px; border: none; padding: 0px;&quot;&gt;ничего&amp;nbsp;&lt;span style=&quot;background-color: transparent; color: light-dark(rgb(0, 0, 0), rgb(255, 255, 255));&quot;&gt;не&amp;nbsp;&lt;/span&gt;&lt;span style=&quot;background-color: transparent; color: light-dark(rgb(0, 0, 0), rgb(255, 255, 255));&quot;&gt;делаем&lt;/span&gt;&lt;/blockquote&gt;&lt;/blockquote&gt;&lt;/blockquote&gt;" style="strokeWidth=2;html=1;shape=mxgraph.flowchart.annotation_2;align=right;labelPosition=left;pointerEvents=1;fontFamily=Lucida Console;fontSize=16;direction=west;verticalLabelPosition=middle;verticalAlign=middle;" vertex="1" parent="1">
          <mxGeometry x="1261" y="1267.5" width="20" height="62.5" as="geometry" />
        </mxCell>
        <mxCell id="x2e8kkigGFOHThG4VKeh-110" value="Если строка&amp;nbsp;&lt;div&gt;пустая или&amp;nbsp;&lt;/div&gt;&lt;div&gt;меньше двух&amp;nbsp;&lt;/div&gt;&lt;div&gt;символов&amp;nbsp;&lt;/div&gt;&lt;div&gt;&lt;span style=&quot;background-color: transparent; color: light-dark(rgb(0, 0, 0), rgb(255, 255, 255));&quot;&gt;ничего&amp;nbsp;&lt;/span&gt;&lt;span style=&quot;background-color: transparent; color: light-dark(rgb(0, 0, 0), rgb(255, 255, 255));&quot;&gt;не делаем&lt;/span&gt;&lt;/div&gt;" style="strokeWidth=2;html=1;shape=mxgraph.flowchart.annotation_2;align=right;labelPosition=left;pointerEvents=1;fontFamily=Lucida Console;fontSize=16;direction=west;verticalLabelPosition=middle;verticalAlign=middle;" vertex="1" parent="1">
          <mxGeometry x="1300" y="227.5" width="20" height="75" as="geometry" />
        </mxCell>
        <mxCell id="x2e8kkigGFOHThG4VKeh-113" value="" style="endArrow=none;html=1;rounded=0;fontFamily=Lucida Console;fontSize=16;fontColor=default;startSize=8;endSize=8;curved=1;exitX=0.5;exitY=1;exitDx=0;exitDy=0;entryX=0.5;entryY=0;entryDx=0;entryDy=0;" edge="1" parent="1" source="x2e8kkigGFOHThG4VKeh-12" target="x2e8kkigGFOHThG4VKeh-18">
          <mxGeometry width="50" height="50" relative="1" as="geometry">
            <mxPoint x="1500" y="990" as="sourcePoint" />
            <mxPoint x="1550" y="940" as="targetPoint" />
          </mxGeometry>
        </mxCell>
        <mxCell id="x2e8kkigGFOHThG4VKeh-114" style="edgeStyle=none;curved=1;rounded=0;orthogonalLoop=1;jettySize=auto;html=1;entryX=0;entryY=0.5;entryDx=0;entryDy=0;fontFamily=Lucida Console;fontSize=16;fontColor=default;startSize=8;endSize=8;" edge="1" parent="1" source="x2e8kkigGFOHThG4VKeh-14" target="x2e8kkigGFOHThG4VKeh-14">
          <mxGeometry relative="1" as="geometry" />
        </mxCell>
        <mxCell id="x2e8kkigGFOHThG4VKeh-117" value="" style="endArrow=classic;html=1;rounded=0;fontFamily=Lucida Console;fontSize=16;fontColor=default;startSize=8;endSize=8;curved=1;exitX=0;exitY=0.5;exitDx=0;exitDy=0;" edge="1" parent="1" source="x2e8kkigGFOHThG4VKeh-11">
          <mxGeometry width="50" height="50" relative="1" as="geometry">
            <mxPoint x="1440" y="950" as="sourcePoint" />
            <mxPoint x="1330" y="940" as="targetPoint" />
          </mxGeometry>
        </mxCell>
        <mxCell id="x2e8kkigGFOHThG4VKeh-118" value="" style="endArrow=classic;html=1;rounded=0;fontFamily=Lucida Console;fontSize=16;fontColor=default;startSize=8;endSize=8;exitX=0;exitY=0.5;exitDx=0;exitDy=0;" edge="1" parent="1" source="x2e8kkigGFOHThG4VKeh-12">
          <mxGeometry width="50" height="50" relative="1" as="geometry">
            <mxPoint x="1440" y="950" as="sourcePoint" />
            <mxPoint x="1470" y="320" as="targetPoint" />
            <Array as="points">
              <mxPoint x="1330" y="1033" />
              <mxPoint x="1330" y="320" />
            </Array>
          </mxGeometry>
        </mxCell>
        <mxCell id="x2e8kkigGFOHThG4VKeh-121" value="*_cell != &#39;\0&#39;" style="rhombus;whiteSpace=wrap;html=1;fontSize=16;fontFamily=Lucida Console;rounded=0;" vertex="1" parent="1">
          <mxGeometry x="1379.8300000000004" y="1460" width="180" height="80" as="geometry" />
        </mxCell>
        <mxCell id="x2e8kkigGFOHThG4VKeh-122" value="*_cell == &#39; &#39;" style="rhombus;whiteSpace=wrap;html=1;fontSize=16;fontFamily=Lucida Console;rounded=0;" vertex="1" parent="1">
          <mxGeometry x="1379.7900000000004" y="1560" width="180" height="80" as="geometry" />
        </mxCell>
        <mxCell id="x2e8kkigGFOHThG4VKeh-123" value="&lt;div&gt;start = _cell&lt;/div&gt;" style="rounded=0;whiteSpace=wrap;html=1;fontFamily=Lucida Console;fontSize=16;" vertex="1" parent="1">
          <mxGeometry x="1379.7900000000004" y="1730" width="180" height="50" as="geometry" />
        </mxCell>
        <mxCell id="x2e8kkigGFOHThG4VKeh-124" value="*_cell != &#39; &#39;&lt;div&gt;and&amp;nbsp;&lt;/div&gt;&lt;div&gt;*_cell != &#39;\0&#39;&lt;/div&gt;" style="rhombus;whiteSpace=wrap;html=1;fontSize=16;fontFamily=Lucida Console;rounded=0;" vertex="1" parent="1">
          <mxGeometry x="1379.8600000000004" y="1797" width="180" height="80" as="geometry" />
        </mxCell>
        <mxCell id="x2e8kkigGFOHThG4VKeh-125" value="&lt;div&gt;current_length = _cell - start&lt;/div&gt;" style="rounded=0;whiteSpace=wrap;html=1;fontFamily=Lucida Console;fontSize=16;" vertex="1" parent="1">
          <mxGeometry x="1379.7900000000004" y="1960" width="180" height="50" as="geometry" />
        </mxCell>
        <mxCell id="x2e8kkigGFOHThG4VKeh-126" value="_cell = _cell+1" style="rounded=0;whiteSpace=wrap;html=1;fontFamily=Lucida Console;fontSize=16;" vertex="1" parent="1">
          <mxGeometry x="1379.7900000000004" y="1660" width="180" height="50" as="geometry" />
        </mxCell>
        <mxCell id="x2e8kkigGFOHThG4VKeh-127" value="" style="endArrow=none;html=1;rounded=0;fontSize=12;startSize=8;endSize=8;curved=1;exitX=0.5;exitY=1;exitDx=0;exitDy=0;entryX=0.5;entryY=0;entryDx=0;entryDy=0;" edge="1" parent="1" source="x2e8kkigGFOHThG4VKeh-126" target="x2e8kkigGFOHThG4VKeh-123">
          <mxGeometry width="50" height="50" relative="1" as="geometry">
            <mxPoint x="1309.7600000000004" y="1960" as="sourcePoint" />
            <mxPoint x="1359.7600000000004" y="1910" as="targetPoint" />
          </mxGeometry>
        </mxCell>
        <mxCell id="x2e8kkigGFOHThG4VKeh-128" value="_cell = _cell+1" style="rounded=0;whiteSpace=wrap;html=1;fontFamily=Lucida Console;fontSize=16;" vertex="1" parent="1">
          <mxGeometry x="1379.7900000000004" y="1890" width="180" height="50" as="geometry" />
        </mxCell>
        <mxCell id="x2e8kkigGFOHThG4VKeh-129" value="" style="endArrow=classic;html=1;rounded=0;fontSize=12;startSize=8;endSize=8;exitX=0;exitY=0.5;exitDx=0;exitDy=0;" edge="1" parent="1" source="x2e8kkigGFOHThG4VKeh-126">
          <mxGeometry width="50" height="50" relative="1" as="geometry">
            <mxPoint x="1479.8600000000004" y="1980" as="sourcePoint" />
            <mxPoint x="1469.8600000000004" y="1550" as="targetPoint" />
            <Array as="points">
              <mxPoint x="1359.8600000000004" y="1685" />
              <mxPoint x="1359.8600000000004" y="1550" />
            </Array>
          </mxGeometry>
        </mxCell>
        <mxCell id="x2e8kkigGFOHThG4VKeh-130" value="" style="endArrow=none;html=1;rounded=0;fontSize=12;startSize=8;endSize=8;curved=1;exitX=0.5;exitY=1;exitDx=0;exitDy=0;entryX=0.5;entryY=0;entryDx=0;entryDy=0;" edge="1" parent="1" source="x2e8kkigGFOHThG4VKeh-121" target="x2e8kkigGFOHThG4VKeh-122">
          <mxGeometry width="50" height="50" relative="1" as="geometry">
            <mxPoint x="1469.8600000000004" y="1690" as="sourcePoint" />
            <mxPoint x="1519.8600000000004" y="1640" as="targetPoint" />
          </mxGeometry>
        </mxCell>
        <mxCell id="x2e8kkigGFOHThG4VKeh-131" value="" style="endArrow=none;html=1;rounded=0;fontSize=12;startSize=8;endSize=8;curved=1;exitX=0.5;exitY=1;exitDx=0;exitDy=0;entryX=0.5;entryY=0;entryDx=0;entryDy=0;" edge="1" parent="1" source="x2e8kkigGFOHThG4VKeh-122" target="x2e8kkigGFOHThG4VKeh-126">
          <mxGeometry width="50" height="50" relative="1" as="geometry">
            <mxPoint x="1469.8600000000004" y="1690" as="sourcePoint" />
            <mxPoint x="1519.8600000000004" y="1640" as="targetPoint" />
          </mxGeometry>
        </mxCell>
        <mxCell id="x2e8kkigGFOHThG4VKeh-132" value="" style="endArrow=classic;html=1;rounded=0;fontSize=12;startSize=8;endSize=8;exitX=0;exitY=0.5;exitDx=0;exitDy=0;" edge="1" parent="1" source="x2e8kkigGFOHThG4VKeh-128">
          <mxGeometry width="50" height="50" relative="1" as="geometry">
            <mxPoint x="1561.8600000000004" y="1932" as="sourcePoint" />
            <mxPoint x="1469.8600000000004" y="1790" as="targetPoint" />
            <Array as="points">
              <mxPoint x="1361.8600000000004" y="1915" />
              <mxPoint x="1361.8600000000004" y="1790" />
            </Array>
          </mxGeometry>
        </mxCell>
        <mxCell id="x2e8kkigGFOHThG4VKeh-133" value="" style="endArrow=none;html=1;rounded=0;fontSize=12;startSize=8;endSize=8;curved=1;exitX=0.5;exitY=1;exitDx=0;exitDy=0;entryX=0.5;entryY=0;entryDx=0;entryDy=0;" edge="1" parent="1" source="x2e8kkigGFOHThG4VKeh-123" target="x2e8kkigGFOHThG4VKeh-124">
          <mxGeometry width="50" height="50" relative="1" as="geometry">
            <mxPoint x="1559.8600000000004" y="1940" as="sourcePoint" />
            <mxPoint x="1609.8600000000004" y="1890" as="targetPoint" />
          </mxGeometry>
        </mxCell>
        <mxCell id="x2e8kkigGFOHThG4VKeh-134" value="" style="endArrow=none;html=1;rounded=0;fontSize=12;startSize=8;endSize=8;curved=1;exitX=0.5;exitY=1;exitDx=0;exitDy=0;entryX=0.5;entryY=0;entryDx=0;entryDy=0;" edge="1" parent="1" source="x2e8kkigGFOHThG4VKeh-124" target="x2e8kkigGFOHThG4VKeh-128">
          <mxGeometry width="50" height="50" relative="1" as="geometry">
            <mxPoint x="1559.8600000000004" y="1940" as="sourcePoint" />
            <mxPoint x="1609.8600000000004" y="1890" as="targetPoint" />
          </mxGeometry>
        </mxCell>
        <mxCell id="x2e8kkigGFOHThG4VKeh-135" value="" style="endArrow=classic;html=1;rounded=0;fontSize=12;startSize=8;endSize=8;exitX=1;exitY=0.5;exitDx=0;exitDy=0;" edge="1" parent="1" source="x2e8kkigGFOHThG4VKeh-122">
          <mxGeometry width="50" height="50" relative="1" as="geometry">
            <mxPoint x="1559.8600000000004" y="1730" as="sourcePoint" />
            <mxPoint x="1469.8600000000004" y="1720" as="targetPoint" />
            <Array as="points">
              <mxPoint x="1579.8600000000004" y="1600" />
              <mxPoint x="1579.8600000000004" y="1720" />
            </Array>
          </mxGeometry>
        </mxCell>
        <mxCell id="x2e8kkigGFOHThG4VKeh-136" value="" style="endArrow=classic;html=1;rounded=0;fontSize=12;startSize=8;endSize=8;exitX=1;exitY=0.5;exitDx=0;exitDy=0;" edge="1" parent="1" source="x2e8kkigGFOHThG4VKeh-124">
          <mxGeometry width="50" height="50" relative="1" as="geometry">
            <mxPoint x="1559.8600000000004" y="1830" as="sourcePoint" />
            <mxPoint x="1469.8600000000004" y="1950" as="targetPoint" />
            <Array as="points">
              <mxPoint x="1579.8600000000004" y="1837" />
              <mxPoint x="1579.8600000000004" y="1950" />
            </Array>
          </mxGeometry>
        </mxCell>
        <mxCell id="x2e8kkigGFOHThG4VKeh-137" value="" style="endArrow=none;html=1;rounded=0;fontSize=12;startSize=8;endSize=8;curved=1;exitX=0.5;exitY=1;exitDx=0;exitDy=0;entryX=0.5;entryY=0;entryDx=0;entryDy=0;" edge="1" parent="1" source="x2e8kkigGFOHThG4VKeh-128" target="x2e8kkigGFOHThG4VKeh-125">
          <mxGeometry width="50" height="50" relative="1" as="geometry">
            <mxPoint x="1559.8600000000004" y="1940" as="sourcePoint" />
            <mxPoint x="1609.8600000000004" y="1890" as="targetPoint" />
          </mxGeometry>
        </mxCell>
        <mxCell id="x2e8kkigGFOHThG4VKeh-138" value="Да" style="text;html=1;align=center;verticalAlign=middle;resizable=0;points=[];autosize=1;strokeColor=none;fillColor=none;fontSize=16;fontFamily=Lucida Console;fontColor=default;" vertex="1" parent="1">
          <mxGeometry x="1479.8600000000004" y="1540" width="40" height="30" as="geometry" />
        </mxCell>
        <mxCell id="x2e8kkigGFOHThG4VKeh-139" value="Нет" style="text;html=1;align=center;verticalAlign=middle;resizable=0;points=[];autosize=1;strokeColor=none;fillColor=none;fontSize=16;fontFamily=Lucida Console;fontColor=default;" vertex="1" parent="1">
          <mxGeometry x="1544.8900000000003" y="1460" width="50" height="30" as="geometry" />
        </mxCell>
        <mxCell id="x2e8kkigGFOHThG4VKeh-140" value="Нет" style="text;html=1;align=center;verticalAlign=middle;resizable=0;points=[];autosize=1;strokeColor=none;fillColor=none;fontSize=16;fontFamily=Lucida Console;fontColor=default;" vertex="1" parent="1">
          <mxGeometry x="1544.8200000000004" y="1565" width="50" height="30" as="geometry" />
        </mxCell>
        <mxCell id="x2e8kkigGFOHThG4VKeh-141" value="Да" style="text;html=1;align=center;verticalAlign=middle;resizable=0;points=[];autosize=1;strokeColor=none;fillColor=none;fontSize=16;fontFamily=Lucida Console;fontColor=default;" vertex="1" parent="1">
          <mxGeometry x="1479.8600000000004" y="1630" width="40" height="30" as="geometry" />
        </mxCell>
        <mxCell id="x2e8kkigGFOHThG4VKeh-142" value="Да" style="text;html=1;align=center;verticalAlign=middle;resizable=0;points=[];autosize=1;strokeColor=none;fillColor=none;fontSize=16;fontFamily=Lucida Console;fontColor=default;" vertex="1" parent="1">
          <mxGeometry x="1479.8600000000004" y="1860" width="40" height="30" as="geometry" />
        </mxCell>
        <mxCell id="x2e8kkigGFOHThG4VKeh-143" value="Нет" style="text;html=1;align=center;verticalAlign=middle;resizable=0;points=[];autosize=1;strokeColor=none;fillColor=none;fontSize=16;fontFamily=Lucida Console;fontColor=default;" vertex="1" parent="1">
          <mxGeometry x="1544.8900000000003" y="1804" width="50" height="30" as="geometry" />
        </mxCell>
        <mxCell id="x2e8kkigGFOHThG4VKeh-144" value="" style="endArrow=none;html=1;rounded=0;fontFamily=Lucida Console;fontSize=16;fontColor=default;startSize=8;endSize=8;curved=1;exitX=0.5;exitY=1;exitDx=0;exitDy=0;entryX=0.5;entryY=0;entryDx=0;entryDy=0;" edge="1" parent="1" source="x2e8kkigGFOHThG4VKeh-14" target="x2e8kkigGFOHThG4VKeh-121">
          <mxGeometry width="50" height="50" relative="1" as="geometry">
            <mxPoint x="1519.9300000000003" y="1350" as="sourcePoint" />
            <mxPoint x="1569.9300000000003" y="1300" as="targetPoint" />
          </mxGeometry>
        </mxCell>
        <mxCell id="x2e8kkigGFOHThG4VKeh-146" value="" style="endArrow=classic;html=1;rounded=0;fontFamily=Lucida Console;fontSize=16;fontColor=default;startSize=8;endSize=8;exitX=1;exitY=0.5;exitDx=0;exitDy=0;" edge="1" parent="1" source="x2e8kkigGFOHThG4VKeh-121">
          <mxGeometry width="50" height="50" relative="1" as="geometry">
            <mxPoint x="1449.9300000000003" y="1610" as="sourcePoint" />
            <mxPoint x="1680" y="1500" as="targetPoint" />
            <Array as="points" />
          </mxGeometry>
        </mxCell>
        <mxCell id="x2e8kkigGFOHThG4VKeh-147" value="current_length == max_length" style="rhombus;whiteSpace=wrap;html=1;fontSize=16;fontFamily=Lucida Console;rounded=0;" vertex="1" parent="1">
          <mxGeometry x="1379.7800000000002" y="2020" width="180" height="80" as="geometry" />
        </mxCell>
        <mxCell id="x2e8kkigGFOHThG4VKeh-148" value="" style="endArrow=none;html=1;rounded=0;fontFamily=Lucida Console;fontSize=16;fontColor=default;startSize=8;endSize=8;curved=1;exitX=0.5;exitY=1;exitDx=0;exitDy=0;entryX=0.5;entryY=0;entryDx=0;entryDy=0;" edge="1" parent="1" source="x2e8kkigGFOHThG4VKeh-125" target="x2e8kkigGFOHThG4VKeh-147">
          <mxGeometry width="50" height="50" relative="1" as="geometry">
            <mxPoint x="1449.9300000000003" y="2080" as="sourcePoint" />
            <mxPoint x="1499.9300000000003" y="2030" as="targetPoint" />
          </mxGeometry>
        </mxCell>
        <mxCell id="x2e8kkigGFOHThG4VKeh-149" value="max_length &amp;gt; 1" style="rhombus;whiteSpace=wrap;html=1;fontSize=16;fontFamily=Lucida Console;rounded=0;" vertex="1" parent="1">
          <mxGeometry x="1379.8300000000002" y="1260" width="180" height="80" as="geometry" />
        </mxCell>
        <mxCell id="x2e8kkigGFOHThG4VKeh-150" value="" style="endArrow=classic;html=1;rounded=0;fontFamily=Lucida Console;fontSize=16;fontColor=default;startSize=8;endSize=8;curved=1;exitX=1;exitY=0.5;exitDx=0;exitDy=0;" edge="1" parent="1" source="x2e8kkigGFOHThG4VKeh-149">
          <mxGeometry width="50" height="50" relative="1" as="geometry">
            <mxPoint x="1450" y="1360" as="sourcePoint" />
            <mxPoint x="1680" y="1300" as="targetPoint" />
          </mxGeometry>
        </mxCell>
        <mxCell id="x2e8kkigGFOHThG4VKeh-151" value="" style="endArrow=none;html=1;rounded=0;fontFamily=Lucida Console;fontSize=16;fontColor=default;startSize=8;endSize=8;curved=1;exitX=0.5;exitY=1;exitDx=0;exitDy=0;entryX=0.5;entryY=0;entryDx=0;entryDy=0;" edge="1" parent="1" source="x2e8kkigGFOHThG4VKeh-149" target="x2e8kkigGFOHThG4VKeh-14">
          <mxGeometry width="50" height="50" relative="1" as="geometry">
            <mxPoint x="1450" y="1360" as="sourcePoint" />
            <mxPoint x="1500" y="1310" as="targetPoint" />
          </mxGeometry>
        </mxCell>
        <mxCell id="x2e8kkigGFOHThG4VKeh-152" value="Нет" style="text;html=1;align=center;verticalAlign=middle;resizable=0;points=[];autosize=1;strokeColor=none;fillColor=none;fontSize=16;fontFamily=Lucida Console;fontColor=default;" vertex="1" parent="1">
          <mxGeometry x="1544.9600000000003" y="1270" width="50" height="30" as="geometry" />
        </mxCell>
        <mxCell id="x2e8kkigGFOHThG4VKeh-153" value="Да" style="text;html=1;align=center;verticalAlign=middle;resizable=0;points=[];autosize=1;strokeColor=none;fillColor=none;fontSize=16;fontFamily=Lucida Console;fontColor=default;" vertex="1" parent="1">
          <mxGeometry x="1479.8600000000004" y="1330" width="40" height="30" as="geometry" />
        </mxCell>
        <mxCell id="x2e8kkigGFOHThG4VKeh-154" value="Да" style="text;html=1;align=center;verticalAlign=middle;resizable=0;points=[];autosize=1;strokeColor=none;fillColor=none;fontSize=16;fontFamily=Lucida Console;fontColor=default;" vertex="1" parent="1">
          <mxGeometry x="1489.8600000000004" y="2080" width="40" height="30" as="geometry" />
        </mxCell>
        <mxCell id="x2e8kkigGFOHThG4VKeh-155" value="Нет" style="text;html=1;align=center;verticalAlign=middle;resizable=0;points=[];autosize=1;strokeColor=none;fillColor=none;fontSize=16;fontFamily=Lucida Console;fontColor=default;" vertex="1" parent="1">
          <mxGeometry x="1360.0000000000005" y="2020" width="50" height="30" as="geometry" />
        </mxCell>
        <mxCell id="x2e8kkigGFOHThG4VKeh-156" value="char* temp = start;&lt;div&gt;*start = *(start + max_length - 1);&lt;/div&gt;&lt;div&gt;&lt;span style=&quot;background-color: transparent; color: light-dark(rgb(0, 0, 0), rgb(255, 255, 255));&quot;&gt;*(start + max_length - 1) = temp&lt;/span&gt;&lt;/div&gt;" style="rounded=0;whiteSpace=wrap;html=1;fontFamily=Lucida Console;fontSize=16;" vertex="1" parent="1">
          <mxGeometry x="1369.68" y="2110" width="200.21" height="120" as="geometry" />
        </mxCell>
        <mxCell id="x2e8kkigGFOHThG4VKeh-157" value="" style="endArrow=none;html=1;rounded=0;fontFamily=Lucida Console;fontSize=16;fontColor=default;startSize=8;endSize=8;curved=1;exitX=0.5;exitY=1;exitDx=0;exitDy=0;entryX=0.5;entryY=0;entryDx=0;entryDy=0;" edge="1" parent="1" source="x2e8kkigGFOHThG4VKeh-147" target="x2e8kkigGFOHThG4VKeh-156">
          <mxGeometry width="50" height="50" relative="1" as="geometry">
            <mxPoint x="1450" y="2110" as="sourcePoint" />
            <mxPoint x="1500" y="2060" as="targetPoint" />
          </mxGeometry>
        </mxCell>
        <mxCell id="x2e8kkigGFOHThG4VKeh-158" value="Конец" style="rounded=1;whiteSpace=wrap;html=1;arcSize=50;fontFamily=Lucida Console;fontSize=16;" vertex="1" parent="1">
          <mxGeometry x="1380" y="2270" width="180" height="60" as="geometry" />
        </mxCell>
        <mxCell id="x2e8kkigGFOHThG4VKeh-159" value="" style="endArrow=none;html=1;rounded=0;fontFamily=Lucida Console;fontSize=16;fontColor=default;startSize=8;endSize=8;curved=1;exitX=0.5;exitY=1;exitDx=0;exitDy=0;entryX=0.5;entryY=0;entryDx=0;entryDy=0;" edge="1" parent="1" source="x2e8kkigGFOHThG4VKeh-156" target="x2e8kkigGFOHThG4VKeh-158">
          <mxGeometry width="50" height="50" relative="1" as="geometry">
            <mxPoint x="1520" y="2110" as="sourcePoint" />
            <mxPoint x="1570" y="2060" as="targetPoint" />
          </mxGeometry>
        </mxCell>
        <mxCell id="x2e8kkigGFOHThG4VKeh-160" value="Цикл&amp;nbsp;&lt;div&gt;прохода&amp;nbsp;&lt;div&gt;по всем&amp;nbsp;&lt;/div&gt;&lt;div&gt;словам&lt;/div&gt;&lt;/div&gt;" style="strokeWidth=2;html=1;shape=mxgraph.flowchart.annotation_2;align=right;labelPosition=left;pointerEvents=1;fontFamily=Lucida Console;fontSize=16;direction=west;verticalLabelPosition=middle;verticalAlign=middle;" vertex="1" parent="1">
          <mxGeometry x="1261" y="1470" width="20" height="60" as="geometry" />
        </mxCell>
        <mxCell id="x2e8kkigGFOHThG4VKeh-161" value="Цикл&amp;nbsp;&lt;div&gt;прохода&amp;nbsp;&lt;/div&gt;&lt;div&gt;пробелов&lt;/div&gt;" style="strokeWidth=2;html=1;shape=mxgraph.flowchart.annotation_2;align=right;labelPosition=left;pointerEvents=1;fontFamily=Lucida Console;fontSize=16;direction=west;verticalLabelPosition=middle;verticalAlign=middle;" vertex="1" parent="1">
          <mxGeometry x="1261" y="1565" width="20" height="130" as="geometry" />
        </mxCell>
        <mxCell id="x2e8kkigGFOHThG4VKeh-162" value="&lt;blockquote style=&quot;margin: 0 0 0 40px; border: none; padding: 0px;&quot;&gt;&lt;blockquote style=&quot;margin: 0 0 0 40px; border: none; padding: 0px;&quot;&gt;&lt;blockquote style=&quot;margin: 0 0 0 40px; border: none; padding: 0px;&quot;&gt;&lt;span style=&quot;background-color: transparent; color: light-dark(rgb(0, 0, 0), rgb(255, 255, 255));&quot;&gt;Цикл&amp;nbsp;&lt;/span&gt;&lt;/blockquote&gt;&lt;/blockquote&gt;&lt;blockquote style=&quot;margin: 0 0 0 40px; border: none; padding: 0px;&quot;&gt;&lt;blockquote style=&quot;margin: 0 0 0 40px; border: none; padding: 0px;&quot;&gt;&lt;span style=&quot;background-color: transparent; color: light-dark(rgb(0, 0, 0), rgb(255, 255, 255));&quot;&gt;прохода&amp;nbsp;&lt;/span&gt;&lt;/blockquote&gt;&lt;/blockquote&gt;&lt;blockquote style=&quot;margin: 0 0 0 40px; border: none; padding: 0px;&quot;&gt;&lt;blockquote style=&quot;margin: 0 0 0 40px; border: none; padding: 0px;&quot;&gt;&lt;div&gt;букв&lt;/div&gt;&lt;/blockquote&gt;&lt;/blockquote&gt;&lt;/blockquote&gt;" style="strokeWidth=2;html=1;shape=mxgraph.flowchart.annotation_2;align=right;labelPosition=left;pointerEvents=1;fontFamily=Lucida Console;fontSize=16;direction=west;verticalLabelPosition=middle;verticalAlign=middle;" vertex="1" parent="1">
          <mxGeometry x="1261" y="1797" width="20" height="134.5" as="geometry" />
        </mxCell>
        <mxCell id="x2e8kkigGFOHThG4VKeh-163" value="&lt;blockquote style=&quot;margin: 0 0 0 40px; border: none; padding: 0px;&quot;&gt;&lt;blockquote style=&quot;margin: 0 0 0 40px; border: none; padding: 0px;&quot;&gt;&lt;blockquote style=&quot;margin: 0 0 0 40px; border: none; padding: 0px;&quot;&gt;Если&amp;nbsp;&lt;span style=&quot;background-color: transparent; color: light-dark(rgb(0, 0, 0), rgb(255, 255, 255));&quot;&gt;длина&amp;nbsp;&lt;/span&gt;&lt;/blockquote&gt;&lt;blockquote style=&quot;margin: 0 0 0 40px; border: none; padding: 0px;&quot;&gt;текущего&amp;nbsp;&lt;/blockquote&gt;&lt;blockquote style=&quot;margin: 0 0 0 40px; border: none; padding: 0px;&quot;&gt;слова&amp;nbsp;&lt;span style=&quot;background-color: transparent; color: light-dark(rgb(0, 0, 0), rgb(255, 255, 255));&quot;&gt;равна&amp;nbsp;&lt;/span&gt;&lt;/blockquote&gt;&lt;blockquote style=&quot;margin: 0 0 0 40px; border: none; padding: 0px;&quot;&gt;&lt;span style=&quot;background-color: transparent; color: light-dark(rgb(0, 0, 0), rgb(255, 255, 255));&quot;&gt;максимальной&lt;/span&gt;&lt;/blockquote&gt;&lt;/blockquote&gt;&lt;/blockquote&gt;" style="strokeWidth=2;html=1;shape=mxgraph.flowchart.annotation_2;align=right;labelPosition=left;pointerEvents=1;fontFamily=Lucida Console;fontSize=16;direction=west;verticalLabelPosition=middle;verticalAlign=middle;" vertex="1" parent="1">
          <mxGeometry x="1270" y="2022.5" width="20" height="75" as="geometry" />
        </mxCell>
        <mxCell id="x2e8kkigGFOHThG4VKeh-165" value="Обновляем&amp;nbsp;&lt;div&gt;указатель&amp;nbsp;&lt;div&gt;на начало&amp;nbsp;&lt;/div&gt;&lt;div&gt;строки&lt;/div&gt;&lt;/div&gt;" style="strokeWidth=2;html=1;shape=mxgraph.flowchart.annotation_2;align=right;labelPosition=left;pointerEvents=1;fontFamily=Lucida Console;fontSize=16;direction=west;verticalLabelPosition=middle;verticalAlign=middle;" vertex="1" parent="1">
          <mxGeometry x="1261" y="1367.5" width="20" height="60" as="geometry" />
        </mxCell>
        <mxCell id="x2e8kkigGFOHThG4VKeh-171" value="" style="endArrow=classic;html=1;rounded=0;fontFamily=Lucida Console;fontSize=16;fontColor=default;startSize=8;endSize=8;curved=1;exitX=0;exitY=0.5;exitDx=0;exitDy=0;" edge="1" parent="1" source="x2e8kkigGFOHThG4VKeh-147">
          <mxGeometry width="50" height="50" relative="1" as="geometry">
            <mxPoint x="1340" y="1820" as="sourcePoint" />
            <mxPoint x="1320" y="2060" as="targetPoint" />
          </mxGeometry>
        </mxCell>
        <mxCell id="x2e8kkigGFOHThG4VKeh-172" value="" style="endArrow=classic;html=1;rounded=0;fontFamily=Lucida Console;fontSize=16;fontColor=default;startSize=8;endSize=8;exitX=0;exitY=0.5;exitDx=0;exitDy=0;" edge="1" parent="1" source="x2e8kkigGFOHThG4VKeh-156">
          <mxGeometry width="50" height="50" relative="1" as="geometry">
            <mxPoint x="1340" y="1820" as="sourcePoint" />
            <mxPoint x="1470" y="1450" as="targetPoint" />
            <Array as="points">
              <mxPoint x="1320" y="2170" />
              <mxPoint x="1320" y="1450" />
            </Array>
          </mxGeometry>
        </mxCell>
        <mxCell id="x2e8kkigGFOHThG4VKeh-173" style="edgeStyle=none;curved=1;rounded=0;orthogonalLoop=1;jettySize=auto;html=1;exitX=0.5;exitY=0;exitDx=0;exitDy=0;fontFamily=Lucida Console;fontSize=16;fontColor=default;startSize=8;endSize=8;" edge="1" parent="1" source="x2e8kkigGFOHThG4VKeh-158" target="x2e8kkigGFOHThG4VKeh-158">
          <mxGeometry relative="1" as="geometry" />
        </mxCell>
      </root>
    </mxGraphModel>
  </diagram>
</mxfile>
